<svg xmlns="http://www.w3.org/2000/svg" viewBox="0 0 650.86 181.87"><defs><style>.a{fill:#fff;}.b{fill:#5d5d5d;}.c{fill:#ffeb5a;stroke:#5d5d5d;stroke-miterlimit:10;stroke-width:2px;}.d{fill:#3195ff;}</style></defs><title>dashboard_logo</title><path class="a" d="M308.26,21.67a53.55,53.55,0,0,0-45.1,24.6V25.87a4.23,4.23,0,0,0-4.2-4.2,4.31,4.31,0,0,0-4.3,4.2v151.8a4.2,4.2,0,0,0,8.4,0v-73.6A53.56,53.56,0,1,0,308.26,21.67Zm0,98.6a45.1,45.1,0,1,1,45.1-45.1A45.11,45.11,0,0,1,308.26,120.27Z"/><path class="a" d="M475.66,21.67a4.23,4.23,0,0,0-4.2,4.2v20.4a53.6,53.6,0,1,0,0,57.8v20.5a4.2,4.2,0,1,0,8.4,0V25.87A4.1,4.1,0,0,0,475.66,21.67Zm-49.3,98.6a45.1,45.1,0,1,1,45.1-45.1A45.11,45.11,0,0,1,426.36,120.27Z"/><path class="a" d="M647.86,21.67a4.5,4.5,0,0,0-5.7,2.7L609,118.27l-27.4-93.7c0-.1-0.1-0.2-0.1-0.3a10.7,10.7,0,0,0-20,0c0,0.1-.1.2-0.1,0.3l-27.5,93.7-33.2-93.9a4.46,4.46,0,1,0-8.4,3l34,96v0.1a8.13,8.13,0,0,0,7.7,5.3,8.33,8.33,0,0,0,7.7-5.3c0-.1.1-0.2,0.1-0.3l28-95.9a1.81,1.81,0,0,1,1.7-1.1,1.66,1.66,0,0,1,1.7,1.1l28,95.9c0,0.1.1,0.2,0.1,0.3a8.13,8.13,0,0,0,7.7,5.3,8.33,8.33,0,0,0,7.7-5.3v-0.1l34-96A4.64,4.64,0,0,0,647.86,21.67Z"/><path class="b" d="M185.94,53.62h-2.12a5,5,0,0,1-5-5h0a5,5,0,0,1,5-5h2.12a5,5,0,0,1,5,5h0A5,5,0,0,1,185.94,53.62Z"/><path class="a" d="M118.8,2.46h19.44l18.77,13,5.92,7,6,11.06v8.6h21.9l-4.25,23.12-8,13.52-18,8.94H149.18l1.34,66.69,4.8,5.92-0.56,8.27-6.7,5.59-12.85-4.36-2.23,4.8-9.83,3.57-9.83-3.57-4.13-5.7-7.26,7.71H39l-18.77-5.81L7,154.39,5.85,143.11v-7.37L2.39,125l5.81-7.37S6.08,97,7.31,96.86s6.48-14.08,6.48-14.08h6.48l5.25,35.41,10.17,33.51,7.37,10.5L50.76,125l9.83-22.57L85.51,72.95l6.81-10.17S81.26,54.29,80.93,47.14s2.46-20.67,8-27.82S118.8,2.46,118.8,2.46Z"/><path class="c" d="M159.13,94.62c-4.36,3.35-4.69,9.61-1.34,14.08,3.13,4.13,10.61,5.59,14.52,6.14a2.33,2.33,0,0,0,2.68-2c0.56-3.8,1.23-11.51-1.9-15.64C169.74,92.72,163.6,91.27,159.13,94.62Zm9.27,10.95a4.43,4.43,0,1,1,.67-5A4.43,4.43,0,0,1,168.4,105.57Z"/><path class="b" d="M192.86,43.35a3,3,0,0,0-3-2.79h-18A43.78,43.78,0,0,0,130.64.11,4.84,4.84,0,0,1,130.08,0h-1.68a41.85,41.85,0,0,0-9.16,1A54.55,54.55,0,0,0,92.43,14.08C83.5,22.12,78.25,33,78,43c-0.11,8,3.24,16.65,11.84,21.67,0.56,0.34,0,.78-0.22.89C81.37,72.28,69,85.91,58.81,104.23a151.69,151.69,0,0,0-17.54,51.39c-4.25-7.71-7.82-17.43-10.61-28.93a238.48,238.48,0,0,1-5.92-39.44,7.59,7.59,0,0,0-7.6-7.15h0a7.67,7.67,0,0,0-6.7,4A51.22,51.22,0,0,0,5.3,110.6a70.8,70.8,0,0,0,.89,8,8.39,8.39,0,0,0-4.69,2.9,7.19,7.19,0,0,0-1.12,6.7,125.27,125.27,0,0,0,4.8,13,7.51,7.51,0,0,0-3.24,10.05C7.87,163.1,15.69,171.82,25.29,177c8,4.36,20.78,4.8,20.89,4.8H91.54c4,0,12-.45,16.87-4.92a21.45,21.45,0,0,0,1.56-1.68c0.11,0.22.34,0.45,0.45,0.67,1.9,2.79,5.7,6,12.74,6a23.39,23.39,0,0,0,9.61-2.12,10.57,10.57,0,0,0,4.69-4.13,18.13,18.13,0,0,0,5.81.89,23.39,23.39,0,0,0,9.61-2.12A10.45,10.45,0,0,0,159.13,164a11,11,0,0,0-3.35-7.15l-1-1a4.47,4.47,0,0,1-1.34-3.24V91.72c12-.56,21.45-4.58,28.26-12C194.54,65.46,192.86,44.35,192.86,43.35ZM153,165.45a4.41,4.41,0,0,1-2.68,3.8,16.79,16.79,0,0,1-7,1.56,10.92,10.92,0,0,1-4.25-.67,10.44,10.44,0,0,0-3.24-7.26l-1.12-1.12a5,5,0,0,1-1.34-2.35c0-.78-0.11-1.68-0.11-2.57v-48a3.16,3.16,0,0,0-2.12-3c-0.11,0-.22,0-0.22-0.11h-1.34c-0.11,0-.22,0-0.22.11a3,3,0,0,0-2.12,2.9v49.71a8.46,8.46,0,0,0,.11,1.68,10.26,10.26,0,0,0,3.13,5.92l1,1a4.48,4.48,0,0,1,1.45,3.46,4,4,0,0,1-.67,2.23,3.75,3.75,0,0,1-2,1.68,16.79,16.79,0,0,1-7,1.56c-4.69,0-10.05-1.56-10.05-14V129.25a3.16,3.16,0,0,0-2.12-3c-0.11,0-.22,0-0.22-0.11h-1.34c-0.11,0-.22,0-0.22.11a3,3,0,0,0-2.12,2.9V156.4c-1.23-3.46-27.59-2.79-28.38-2.79H70.76a3.31,3.31,0,0,0-2.9,2v0.11a1744092.69,1744092.69,0,0,1-.22.45v0.45h0v1.12a0.41,0.41,0,0,0,.11.34,0.22,0.22,0,0,0,.11.22,0.59,0.59,0,0,0,.22.34,0.11,0.11,0,0,0,.11.11,3.12,3.12,0,0,0,2.57,1.34h1.68c0.34,0,29.49-.67,32.84,2.57,0.67,0.67,1.56,1.79,1.56,4.58a6.91,6.91,0,0,1-2.12,5.36c-3.8,3.46-11.84,3.69-14.63,3.46H46.18a28.88,28.88,0,0,1-6-.22c-9.16-1.56-22.68-7.37-32.4-27.15a1.54,1.54,0,0,1,1.34-2.23,1.36,1.36,0,0,1,1,.45L12.56,149a2,2,0,0,0,1,.45,1.54,1.54,0,0,0,1.34-2.23,151.76,151.76,0,0,1-8.38-20.67,1.55,1.55,0,0,1,1.45-2,1.58,1.58,0,0,1,1.34.78c1.23,2.12,2.46,4.36,3.8,6.48a1.42,1.42,0,0,0,1.23.78,1.5,1.5,0,0,0,1.45-2c-3.8-10.95-7.48-28.6.34-43.35a1.46,1.46,0,0,1,1.34-.78A1.57,1.57,0,0,1,19,87.92c0.89,13.74,4.69,53.62,21.45,77.75,1.79,2.57,6,1.12,6.37-1.68C51.1,121.1,74,89.15,89.42,74.4a89.06,89.06,0,0,0,25.47,13.52,140,140,0,0,0,32.62,6.93v58.31a10.55,10.55,0,0,0,3.24,7.6l1,1A5.1,5.1,0,0,1,153,165.45Zm24.13-89.93c-5.7,6.26-15.08,10.05-24.47,10.05s-19.89-2.35-30.83-6.14A148.73,148.73,0,0,1,96.34,66.92a33.38,33.38,0,0,0,13,2.46c9.27,0,16-2.9,19.89-8.6,8.49-12.29.11-32.73-.22-33.63a3.1,3.1,0,0,0-4.25-1.56,3.21,3.21,0,0,0-1.34,3.91c2.12,5.14,6.26,19.77.78,27.71-2.9,4.13-8.27,6.14-16,5.92a32.73,32.73,0,0,1-13.63-3,17.69,17.69,0,0,1-9.61-11.39,22.51,22.51,0,0,1-.67-5.59,24.56,24.56,0,0,1,1-6.81A38.87,38.87,0,0,1,96.57,18.54a47.57,47.57,0,0,1,24-11.62,50.55,50.55,0,0,1,8.27-.78,37.57,37.57,0,0,1,37.09,37.42,3.12,3.12,0,0,0,3.13,3.13h6.37c0.34,2.79,1.9,11.51,10.39,10.95C184.37,63.57,181.92,70.27,177.11,75.52Z"/><path class="d" d="M147.17,94.85v-9.5s-15.53-2.57-27-6.7-23.8-11.84-23.8-11.84-0.45.45-3.13,3.24-4,4.25-4,4.25,6.93,7,26.25,13.85S147.17,94.85,147.17,94.85Z"/></svg>