<?xml-stylesheet href="../css/app.css" type="text/css"?>
<svg xmlns="http://www.w3.org/2000/svg" width="1164.85" height="1109.04" viewBox="0 0 1164.85 1109.04">
  <title>isl-paw-squiggle</title>
  <style>
    .cta-squiggle-path {
      fill: rgba(255, 255, 255, .1);
    }
  </style>
  <g>
    <g>
      <path class="cta-squiggle-path" d="M73.77,166.95a13.48,13.48,0,0,1-22.21-5c-1.42-4-13.33-39.49,4.56-65.56,10.45-15.19,28-23.19,52.3-23.77,16-.39,27.08-4.75,32.83-12.94,9.15-13,4.79-35.19,2.54-41.93a13.49,13.49,0,1,1,25.59-8.53c0.53,1.59,12.75,39.18-6.06,66C152.38,90.78,134.12,99,109.07,99.58,94,100,83.65,104,78.39,111.6c-8.65,12.52-4,34.07-1.43,41.32A13.52,13.52,0,0,1,73.77,166.95Z"/>
      <path class="cta-squiggle-path" d="M251.38,252.39a13.48,13.48,0,0,1-22.21-5c-1.42-4-13.33-39.49,4.56-65.56,10.45-15.19,28-23.19,52.3-23.77,16-.39,27.08-4.75,32.83-12.94,9.15-13,4.79-35.19,2.54-41.93A13.49,13.49,0,1,1,347,94.67c0.53,1.59,12.75,39.18-6.06,66C330,176.22,311.74,184.41,286.69,185c-15.1.37-25.42,4.41-30.68,12-8.65,12.52-4,34.07-1.43,41.32A13.52,13.52,0,0,1,251.38,252.39Z"/>
      <path class="cta-squiggle-path" d="M34.4,423.28a13.48,13.48,0,0,1-22.21-5c-1.42-4-13.33-39.49,4.56-65.56,10.45-15.19,28-23.19,52.3-23.77,16-.39,27.08-4.75,32.83-12.94,9.15-13,4.79-35.19,2.54-41.93A13.49,13.49,0,1,1,130,265.55c0.53,1.59,12.75,39.18-6.06,66C113,347.1,94.76,355.3,69.71,355.91c-15.1.37-25.42,4.41-30.68,12-8.65,12.52-4,34.07-1.43,41.32A13.52,13.52,0,0,1,34.4,423.28Z"/>
      <path class="cta-squiggle-path" d="M668.75,166.95a13.48,13.48,0,0,1-22.21-5c-1.42-4-13.33-39.49,4.56-65.56,10.45-15.19,28-23.19,52.3-23.77,16-.39,27.08-4.75,32.83-12.94,9.15-13,4.79-35.19,2.54-41.93a13.49,13.49,0,1,1,25.59-8.53c0.53,1.59,12.75,39.18-6.06,66C747.36,90.78,729.11,99,704.05,99.58c-15.1.37-25.42,4.41-30.68,12-8.65,12.52-4,34.07-1.43,41.32A13.52,13.52,0,0,1,668.75,166.95Z"/>
      <path class="cta-squiggle-path" d="M846.36,252.39a13.48,13.48,0,0,1-22.21-5c-1.42-4-13.33-39.49,4.56-65.56,10.45-15.19,28-23.19,52.3-23.77,16-.39,27.08-4.75,32.83-12.94,9.15-13,4.79-35.19,2.54-41.93A13.49,13.49,0,1,1,942,94.67c0.53,1.59,12.75,39.18-6.06,66C925,176.22,906.72,184.41,881.67,185c-15.1.37-25.42,4.41-30.68,12-8.65,12.52-4,34.07-1.43,41.32A13.52,13.52,0,0,1,846.36,252.39Z"/>
      <path class="cta-squiggle-path" d="M629.39,423.28a13.48,13.48,0,0,1-22.21-5c-1.42-4-13.33-39.49,4.56-65.56,10.45-15.19,28-23.19,52.3-23.77,16-.39,27.08-4.75,32.83-12.94,9.15-13,4.79-35.19,2.54-41.93A13.49,13.49,0,1,1,725,265.55c0.53,1.59,12.75,39.18-6.06,66-10.93,15.59-29.19,23.78-54.24,24.4-15.1.37-25.42,4.41-30.68,12-8.65,12.52-4,34.07-1.43,41.32A13.52,13.52,0,0,1,629.39,423.28Z"/>
    </g>
    <g>
      <path class="cta-squiggle-path" d="M292.25,848.77a13.48,13.48,0,0,1-22.21-5c-1.42-4-13.33-39.49,4.56-65.56,10.45-15.19,28-23.19,52.3-23.77,16-.39,27.08-4.75,32.83-12.94,9.15-13,4.79-35.19,2.54-41.93A13.49,13.49,0,1,1,387.86,691c0.53,1.59,12.75,39.18-6.06,66-10.93,15.59-29.19,23.78-54.24,24.4-15.1.37-25.42,4.41-30.68,12-8.65,12.52-4,34.07-1.43,41.32A13.52,13.52,0,0,1,292.25,848.77Z"/>
      <path class="cta-squiggle-path" d="M469.87,934.21a13.48,13.48,0,0,1-22.21-5c-1.42-4-13.33-39.49,4.56-65.56,10.45-15.19,28-23.19,52.3-23.77,16-.39,27.08-4.75,32.83-12.94,9.15-13,4.79-35.19,2.54-41.93a13.49,13.49,0,1,1,25.59-8.53c0.53,1.59,12.75,39.18-6.06,66-10.93,15.59-29.19,23.78-54.24,24.4-15.1.37-25.42,4.41-30.68,12-8.65,12.52-4,34.07-1.43,41.32A13.52,13.52,0,0,1,469.87,934.21Z"/>
      <path class="cta-squiggle-path" d="M252.89,1105.1a13.48,13.48,0,0,1-22.21-5c-1.42-4-13.33-39.49,4.56-65.56,10.45-15.19,28-23.19,52.3-23.77,16-.39,27.08-4.75,32.83-12.94,9.15-13,4.79-35.19,2.54-41.93a13.49,13.49,0,1,1,25.59-8.53c0.53,1.59,12.75,39.18-6.06,66-10.93,15.59-29.19,23.78-54.24,24.4-15.1.37-25.42,4.41-30.68,12-8.65,12.52-4,34.07-1.43,41.32A13.52,13.52,0,0,1,252.89,1105.1Z"/>
      <path class="cta-squiggle-path" d="M887.24,848.77a13.48,13.48,0,0,1-22.21-5c-1.42-4-13.33-39.49,4.56-65.56,10.45-15.19,28-23.19,52.3-23.77,16-.39,27.08-4.75,32.83-12.94,9.15-13,4.79-35.19,2.54-41.93A13.49,13.49,0,1,1,982.84,691c0.53,1.59,12.75,39.18-6.06,66-10.93,15.59-29.19,23.78-54.24,24.4-15.1.37-25.42,4.41-30.68,12-8.65,12.52-4,34.07-1.43,41.32A13.52,13.52,0,0,1,887.24,848.77Z"/>
      <path class="cta-squiggle-path" d="M1064.85,934.21a13.48,13.48,0,0,1-22.21-5c-1.42-4-13.33-39.49,4.56-65.56,10.45-15.19,28-23.19,52.3-23.77,16-.39,27.08-4.75,32.83-12.94,9.15-13,4.79-35.19,2.54-41.93a13.49,13.49,0,1,1,25.59-8.53c0.53,1.59,12.75,39.18-6.06,66-10.93,15.59-29.19,23.78-54.24,24.4-15.1.37-25.42,4.41-30.68,12-8.65,12.52-4,34.07-1.43,41.32A13.52,13.52,0,0,1,1064.85,934.21Z"/>
      <path class="cta-squiggle-path" d="M847.88,1105.1a13.48,13.48,0,0,1-22.21-5c-1.42-4-13.33-39.49,4.56-65.56,10.45-15.19,28-23.19,52.3-23.77,16-.39,27.08-4.75,32.83-12.94,9.15-13,4.79-35.19,2.54-41.93a13.49,13.49,0,1,1,25.59-8.53c0.53,1.59,12.75,39.18-6.06,66-10.93,15.59-29.19,23.78-54.24,24.4-15.1.37-25.42,4.41-30.68,12-8.65,12.52-4,34.07-1.43,41.32A13.52,13.52,0,0,1,847.88,1105.1Z"/>
    </g>
  </g>
</svg>
