<?xml version="1.0" encoding="iso-8859-1"?>
<!-- Generator: Adobe Illustrator 16.0.0, SVG Export Plug-In . SVG Version: 6.00 Build 0)  -->
<!DOCTYPE svg PUBLIC "-//W3C//DTD SVG 1.1//EN" "http://www.w3.org/Graphics/SVG/1.1/DTD/svg11.dtd">
<svg version="1.1" id="Capa_1" xmlns="http://www.w3.org/2000/svg" xmlns:xlink="http://www.w3.org/1999/xlink" x="0px" y="0px"
	 width="97.108px" height="97.108px" viewBox="0 0 97.108 97.108" style="enable-background:new 0 0 97.108 97.108;"
	 xml:space="preserve">
<g>
	<g>
		<path d="M47.742,50.499c-7.557,0-14.04,2.775-19.267,8.248c-7.376,7.725-9.636,17.947-9.548,19.862
			c0.186,4.024,1.796,7.211,4.532,8.97c0.946,0.609,1.954,0.917,2.998,0.917c2.522,0,5.288-1.704,8.49-3.675
			c0.429-0.264,0.925-0.604,1.481-0.982c2.643-1.807,6.637-4.537,10.921-4.537c4.636,0,9.583,3.363,12.243,5.17l0.825,0.555
			c2.972,1.958,5.771,3.801,8.265,3.801c0.931,0,1.838-0.25,2.702-0.744c3.208-1.822,5.293-4.131,5.052-9.484
			C76.187,73.022,70.296,50.499,47.742,50.499z"/>
		<path d="M33.374,43.317c0.418,0,0.838-0.029,1.26-0.087c6.943-0.96,11.512-9.561,10.184-19.171
			c-1.223-8.847-7.261-15.776-13.744-15.776c-0.418,0-0.84,0.029-1.262,0.087c-3.27,0.452-6.136,2.638-8.07,6.154
			c-2.017,3.666-2.767,8.29-2.113,13.019C20.852,36.388,26.889,43.317,33.374,43.317z"/>
		<path d="M8.505,36.854c-0.62,0-1.24,0.078-1.846,0.233c-5.261,1.35-7.928,8.081-6.068,15.324
			c1.622,6.324,6.084,10.741,10.853,10.741c0.62,0,1.24-0.078,1.845-0.233c5.262-1.35,7.929-8.08,6.071-15.323
			C17.738,41.271,13.274,36.854,8.505,36.854z"/>
		<path d="M62.474,43.229c6.972,0.961,13.704-6.273,15.006-15.688c0.653-4.729-0.097-9.353-2.112-13.019
			c-1.936-3.516-4.801-5.702-8.07-6.154c-0.422-0.058-0.844-0.087-1.262-0.087c-6.483,0-12.521,6.93-13.744,15.777
			C50.962,33.67,55.531,42.27,62.474,43.229z"/>
		<path d="M90.449,37.087c-0.605-0.155-1.227-0.233-1.847-0.233c-4.769,0-9.231,4.417-10.854,10.742
			c-1.857,7.243,0.81,13.973,6.071,15.323c0.604,0.155,1.225,0.233,1.845,0.233c4.769,0.001,9.229-4.416,10.853-10.741
			C98.376,45.167,95.709,38.437,90.449,37.087z"/>
	</g>
</g>
<g>
</g>
<g>
</g>
<g>
</g>
<g>
</g>
<g>
</g>
<g>
</g>
<g>
</g>
<g>
</g>
<g>
</g>
<g>
</g>
<g>
</g>
<g>
</g>
<g>
</g>
<g>
</g>
<g>
</g>
</svg>
