<?xml version="1.0" encoding="utf-8"?>
<!-- Generator: Adobe Illustrator 19.2.0, SVG Export Plug-In . SVG Version: 6.00 Build 0)  -->
<svg version="1.1" id="Layer_1" xmlns="http://www.w3.org/2000/svg" xmlns:xlink="http://www.w3.org/1999/xlink" x="0px" y="0px"
	 viewBox="0 0 396.2 164.6" style="enable-background:new 0 0 396.2 164.6;" xml:space="preserve">
<style type="text/css">
	.st0{fill:#5D5D5D;}
</style>
<g>
	<path class="st0" d="M53.6,4.4C34.7,4.4,18,14.2,8.5,29V8.6c0-2.3-1.9-4.2-4.2-4.2S0,6.3,0,8.6v151.8c0,2.3,1.9,4.2,4.2,4.2
		s4.2-1.9,4.2-4.2V86.8c9.5,14.8,26.2,24.7,45.1,24.7c29.5,0,53.6-24,53.6-53.6S83.1,4.4,53.6,4.4z M53.6,103
		C28.7,103,8.5,82.8,8.5,57.9s20.2-45.1,45.1-45.1s45.1,20.2,45.1,45.1S78.4,103,53.6,103z"/>
	<path class="st0" d="M221,4.4c-2.3,0-4.2,1.9-4.2,4.2V29c-9.5-14.8-26.2-24.7-45.1-24.7c-29.5,0-53.6,24-53.6,53.6
		s24,53.6,53.6,53.6c18.9,0,35.6-9.8,45.1-24.7v20.5c0,2.3,1.9,4.2,4.2,4.2s4.2-1.9,4.2-4.2V8.6C225.3,6.3,223.4,4.4,221,4.4z
		 M171.7,103c-24.9,0-45.1-20.2-45.1-45.1s20.2-45.1,45.1-45.1s45.1,20.2,45.1,45.1S196.6,103,171.7,103z"/>
	<path class="st0" d="M393.2,4.4c-2.3-0.8-4.9,0.4-5.7,2.7L354.3,101L326.9,7.3c0-0.1-0.1-0.2-0.1-0.3c-1.6-4.2-5.6-6.9-10-6.9
		s-8.4,2.7-10,6.9c0,0.1-0.1,0.2-0.1,0.3L279.2,101L246,7.1c-0.8-2.3-3.4-3.5-5.7-2.7c-2.3,0.8-3.5,3.4-2.7,5.7l34,96
		c0,0,0,0.1,0,0.1c1.2,3.2,4.2,5.3,7.7,5.3c3.4,0,6.4-2.1,7.7-5.3c0-0.1,0.1-0.2,0.1-0.3l28-95.9c0.4-0.9,1.2-1.1,1.7-1.1
		c0.5,0,1.3,0.1,1.7,1.1l28,95.9c0,0.1,0.1,0.2,0.1,0.3c1.2,3.2,4.2,5.3,7.7,5.3c3.4,0,6.4-2.1,7.7-5.3c0,0,0-0.1,0-0.1l34-96
		C396.7,7.8,395.5,5.2,393.2,4.4z"/>
</g>
</svg>
