<svg xmlns="http://www.w3.org/2000/svg" viewBox="0 0 235.77 342.25"><defs><style>.a{fill:#ff6356;}.b{fill:#ff362c;}</style></defs><title>isl-paw-illustrations</title><path class="a" d="M4146.09,598.09l37.74,10.63,26.91,42.6,7,27.57h12v20.92h-12.93l5.32,44.68h20.34v74.15h-23.77l-1.9,51.67,16.73,11.07,4.18,29.18H4051l-4.37-29.18,27.19-3.8-11.41-59.89-21.49-1V740.69l26.62-1-1-38L4051,691.59V684l16.54-15.21s6.72-43.45,18-43.47S4146.09,598.09,4146.09,598.09Z" transform="translate(-4024.4 -577.51)"/><path class="b" d="M4142.29,733.42a45.63,45.63,0,1,0,45.63,45.63A45.68,45.68,0,0,0,4142.29,733.42Zm0,76.06a30.42,30.42,0,1,1,30.42-30.42A30.46,30.46,0,0,1,4142.29,809.48Z" transform="translate(-4024.4 -577.51)"/><path class="b" d="M4260.18,779.06a19,19,0,0,0-11.41-17.4V741a7.61,7.61,0,0,0-7.61-7.61H4226V706.8h3.8a7.61,7.61,0,0,0,7.61-7.61V676.38a7.61,7.61,0,0,0-7.61-7.61h-4.16a83.81,83.81,0,0,0-75.69-75.69v-8a7.61,7.61,0,1,0-15.21,0v8a83.77,83.77,0,0,0-75.69,75.7h-4.16a7.61,7.61,0,0,0-7.61,7.61V699.2a7.61,7.61,0,0,0,7.61,7.61h3.8v26.62h-15.21a7.61,7.61,0,0,0-7.61,7.61v20.63a19,19,0,0,0,0,34.8v20.63a7.61,7.61,0,0,0,7.61,7.61h15.21v45.63h-11.41a7.61,7.61,0,0,0-7.61,7.61v34.22a7.61,7.61,0,0,0,7.61,7.61h190.14a7.61,7.61,0,0,0,7.61-7.61V877.93a7.61,7.61,0,0,0-7.61-7.61H4226V824.69h15.21a7.61,7.61,0,0,0,7.61-7.61V796.46A19,19,0,0,0,4260.18,779.06Zm-197.74-87.46V684h159.72v7.61H4062.43Zm106.35-22.82c-0.36-12.13-1.74-35-6.93-52.58,11.81,10.53,20.38,30.11,22,52.58h-15Zm-15.19,0H4131c0.84-33.08,7-54.7,11.3-60.05C4146.54,614.07,4152.75,635.69,4153.6,668.78Zm-30.87-52.6c-5.19,17.54-6.57,40.47-6.93,52.6h-15C4102.35,646.28,4110.92,626.71,4122.73,616.18Zm87.56,52.6h-11.21c-1-16.41-5.05-31.28-11.39-43.47A68.28,68.28,0,0,1,4210.29,668.78Zm-113.4-43.49c-6.33,12.19-10.42,27.07-11.39,43.49h-11.21A68.3,68.3,0,0,1,4096.89,625.29ZM4051,809.48V748.63h7.61v60.84H4051Zm178.73,95.07H4054.83v-19h174.93v19Zm-155.91-34.22V706.8h136.9V870.32h-136.9Zm159.72-60.84H4226V748.63h7.61v60.84Z" transform="translate(-4024.4 -577.51)"/><path class="b" d="M4142.29,760a19,19,0,1,0,19,19A19,19,0,0,0,4142.29,760Zm0,22.82a3.8,3.8,0,1,1,3.8-3.8A3.81,3.81,0,0,1,4142.29,782.86Z" transform="translate(-4024.4 -577.51)"/></svg>
