<svg xmlns="http://www.w3.org/2000/svg" viewBox="0 0 1701.81 651.33"><defs><style>.a,.l{fill:#fff;}.a,.b,.c,.d,.f,.k{stroke:#ccc;stroke-miterlimit:10;}.a,.b,.c{stroke-width:5px;}.b{fill:#fcf9d6;}.c,.d,.f{fill:none;}.d{stroke-width:5.28px;}.e{fill:#ccc;}.f{stroke-width:5.1px;}.g,.i{font-size:15px;fill:#686868;font-family:Domus Titling;font-weight:700;}.g,.j{letter-spacing:4px;}.h,.i{letter-spacing:3px;}.k{fill:#ff362c;stroke-width:4px;}</style></defs><title>isl-paw-illustrations</title><polygon class="a" points="1682.94 648.83 20.83 648.83 18.87 2.54 1682.94 2.54 1682.94 648.83"/><polyline class="b" points="698.57 5.54 698.57 213.17 575.17 213.17 575.17 5.54"/><rect class="b" x="18.87" y="2.5" width="217.57" height="111.65"/><polygon class="a" points="19.99 372.83 174.42 372.83 174.42 410.8 224.88 410.8 224.88 552.82 170.94 552.82 170.94 575.83 449.24 575.83 449.24 648 20.83 648 19.99 372.83"/><polygon class="b" points="224.88 410.8 416.5 410.8 575.17 410.8 575.17 648.83 449.24 648.83 449.24 575.83 170.94 575.83 170.94 552.82 224.88 552.82 224.88 410.8"/><polyline class="b" points="269.59 408.8 269.59 232.72 416.84 232.72 416.84 407.8"/><path class="b" d="M2960.47,1677.78h72v233H3062v47h55.51l37-48h176v-59h-68v-61l162-273.29H2960.86Z" transform="translate(-2261.52 -1513.95)"/><polyline class="c" points="892.94 395.83 892.94 466.83 932.94 466.83"/><polyline class="c" points="952.94 395.83 952.94 466.83 992.94 466.83"/><polyline class="c" points="1012.94 395.83 1012.94 466.83 1052.94 466.83"/><polyline class="c" points="1162.94 2.54 1162.94 336.99 1105.44 336.99"/><polygon class="b" points="1379.44 421.83 1283.94 421.83 1283.94 350.16 1283.94 325.16 1379.44 325.16 1379.44 421.83"/><polygon class="b" points="1379.44 325.16 1283.94 325.16 1283.94 253.5 1283.94 228.5 1379.44 228.5 1379.44 325.16"/><polygon class="b" points="857.49 648.54 761.99 648.54 761.99 576.87 761.99 551.87 857.49 551.87 857.49 648.54"/><polygon class="b" points="1379.44 228.5 1283.94 228.5 1283.94 156.83 1283.94 131.83 1379.44 131.83 1379.44 228.5"/><rect class="d" x="1202.36" y="42.91" width="32.67" height="36.42"/><rect class="d" x="1202.36" y="79.33" width="32.67" height="36.42"/><rect class="d" x="1202.36" y="115.75" width="32.67" height="36.42"/><rect class="d" x="1202.36" y="152.16" width="32.67" height="36.42"/><path class="e" d="M3461.71,1581.24a6.17,6.17,0,1,1,0-12.33" transform="translate(-2261.52 -1513.95)"/><path class="e" d="M3461.71,1617.66a6.17,6.17,0,1,1,0-12.33" transform="translate(-2261.52 -1513.95)"/><path class="e" d="M3461.71,1654.07a6.17,6.17,0,1,1,0-12.33" transform="translate(-2261.52 -1513.95)"/><path class="e" d="M3461.71,1690.49a6.17,6.17,0,1,1,0-12.33" transform="translate(-2261.52 -1513.95)"/><path class="e" d="M3498.46,1678.16a6.17,6.17,0,0,1,0,12.33" transform="translate(-2261.52 -1513.95)"/><path class="e" d="M3498.46,1641.74a6.17,6.17,0,0,1,0,12.33" transform="translate(-2261.52 -1513.95)"/><path class="e" d="M3498.46,1605.33a6.17,6.17,0,0,1,0,12.33" transform="translate(-2261.52 -1513.95)"/><rect class="d" x="1202.36" y="201.16" width="32.67" height="36.42"/><rect class="d" x="1202.36" y="237.58" width="32.67" height="36.42"/><rect class="d" x="1202.36" y="274" width="32.67" height="36.42"/><path class="e" d="M3461.71,1739.49a6.17,6.17,0,1,1,0-12.33" transform="translate(-2261.52 -1513.95)"/><path class="e" d="M3461.71,1775.91a6.17,6.17,0,1,1,0-12.33" transform="translate(-2261.52 -1513.95)"/><path class="e" d="M3461.71,1812.32a6.17,6.17,0,1,1,0-12.33" transform="translate(-2261.52 -1513.95)"/><path class="e" d="M3498.46,1800a6.17,6.17,0,0,1,0,12.33" transform="translate(-2261.52 -1513.95)"/><path class="e" d="M3498.46,1763.58a6.17,6.17,0,0,1,0,12.33" transform="translate(-2261.52 -1513.95)"/><path class="e" d="M3498.46,1727.16a6.17,6.17,0,0,1,0,12.33" transform="translate(-2261.52 -1513.95)"/><path class="e" d="M3498.46,1568.91a6.17,6.17,0,0,1,0,12.33" transform="translate(-2261.52 -1513.95)"/><rect class="d" x="1202.36" y="323" width="32.67" height="36.42"/><rect class="d" x="1202.36" y="359.41" width="32.67" height="36.42"/><rect class="d" x="1202.36" y="395.83" width="32.67" height="36.42"/><rect class="d" x="1202.36" y="432.25" width="32.67" height="36.42"/><path class="e" d="M3461.71,1861.32a6.17,6.17,0,1,1,0-12.33" transform="translate(-2261.52 -1513.95)"/><path class="e" d="M3461.71,1897.74a6.17,6.17,0,1,1,0-12.33" transform="translate(-2261.52 -1513.95)"/><path class="e" d="M3461.71,1934.16a6.17,6.17,0,1,1,0-12.33" transform="translate(-2261.52 -1513.95)"/><path class="e" d="M3461.71,1970.57a6.17,6.17,0,1,1,0-12.33" transform="translate(-2261.52 -1513.95)"/><path class="e" d="M3498.46,1958.24a6.17,6.17,0,0,1,0,12.33" transform="translate(-2261.52 -1513.95)"/><path class="e" d="M3498.46,1921.83a6.17,6.17,0,0,1,0,12.33" transform="translate(-2261.52 -1513.95)"/><path class="e" d="M3498.46,1885.41a6.17,6.17,0,0,1,0,12.33" transform="translate(-2261.52 -1513.95)"/><path class="e" d="M3498.46,1849a6.17,6.17,0,0,1,0,12.33" transform="translate(-2261.52 -1513.95)"/><rect class="d" x="1424.36" y="42.91" width="32.67" height="36.42"/><rect class="d" x="1424.36" y="79.33" width="32.67" height="36.42"/><rect class="d" x="1424.36" y="115.75" width="32.67" height="36.42"/><rect class="d" x="1424.36" y="152.16" width="32.67" height="36.42"/><path class="e" d="M3683.72,1581.24a6.17,6.17,0,1,1,0-12.33" transform="translate(-2261.52 -1513.95)"/><path class="e" d="M3683.72,1617.66a6.17,6.17,0,1,1,0-12.33" transform="translate(-2261.52 -1513.95)"/><path class="e" d="M3683.72,1654.07a6.17,6.17,0,1,1,0-12.33" transform="translate(-2261.52 -1513.95)"/><path class="e" d="M3683.72,1690.49a6.17,6.17,0,1,1,0-12.33" transform="translate(-2261.52 -1513.95)"/><path class="e" d="M3720.47,1678.16a6.17,6.17,0,0,1,0,12.33" transform="translate(-2261.52 -1513.95)"/><path class="e" d="M3720.47,1641.74a6.17,6.17,0,0,1,0,12.33" transform="translate(-2261.52 -1513.95)"/><path class="e" d="M3720.47,1605.33a6.17,6.17,0,0,1,0,12.33" transform="translate(-2261.52 -1513.95)"/><rect class="d" x="1424.36" y="201.16" width="32.67" height="36.42"/><rect class="d" x="1424.36" y="237.58" width="32.67" height="36.42"/><rect class="d" x="1424.36" y="274" width="32.67" height="36.42"/><path class="e" d="M3683.72,1739.49a6.17,6.17,0,1,1,0-12.33" transform="translate(-2261.52 -1513.95)"/><path class="e" d="M3683.72,1775.91a6.17,6.17,0,1,1,0-12.33" transform="translate(-2261.52 -1513.95)"/><path class="e" d="M3683.72,1812.32a6.17,6.17,0,1,1,0-12.33" transform="translate(-2261.52 -1513.95)"/><path class="e" d="M3720.47,1800a6.17,6.17,0,0,1,0,12.33" transform="translate(-2261.52 -1513.95)"/><path class="e" d="M3720.47,1763.58a6.17,6.17,0,0,1,0,12.33" transform="translate(-2261.52 -1513.95)"/><path class="e" d="M3720.47,1727.16a6.17,6.17,0,0,1,0,12.33" transform="translate(-2261.52 -1513.95)"/><path class="e" d="M3720.47,1568.91a6.17,6.17,0,0,1,0,12.33" transform="translate(-2261.52 -1513.95)"/><rect class="d" x="1424.36" y="323" width="32.67" height="36.42"/><rect class="d" x="1424.36" y="359.41" width="32.67" height="36.42"/><rect class="d" x="1424.36" y="395.83" width="32.67" height="36.42"/><rect class="d" x="1424.36" y="432.25" width="32.67" height="36.42"/><path class="e" d="M3683.72,1861.32a6.17,6.17,0,1,1,0-12.33" transform="translate(-2261.52 -1513.95)"/><path class="e" d="M3683.72,1897.74a6.17,6.17,0,1,1,0-12.33" transform="translate(-2261.52 -1513.95)"/><path class="e" d="M3683.72,1934.16a6.17,6.17,0,1,1,0-12.33" transform="translate(-2261.52 -1513.95)"/><path class="e" d="M3683.72,1970.57a6.17,6.17,0,1,1,0-12.33" transform="translate(-2261.52 -1513.95)"/><path class="e" d="M3720.47,1958.24a6.17,6.17,0,0,1,0,12.33" transform="translate(-2261.52 -1513.95)"/><path class="e" d="M3720.47,1921.83a6.17,6.17,0,0,1,0,12.33" transform="translate(-2261.52 -1513.95)"/><path class="e" d="M3720.47,1885.41a6.17,6.17,0,0,1,0,12.33" transform="translate(-2261.52 -1513.95)"/><path class="e" d="M3720.47,1849a6.17,6.17,0,0,1,0,12.33" transform="translate(-2261.52 -1513.95)"/><rect class="d" x="1202.36" y="503" width="32.67" height="36.42"/><rect class="d" x="1202.36" y="539.41" width="32.67" height="36.42"/><rect class="d" x="1202.36" y="575.83" width="32.67" height="36.42"/><rect class="d" x="1202.36" y="612.25" width="32.67" height="36.42"/><path class="e" d="M3461.71,2041.32a6.17,6.17,0,1,1,0-12.33" transform="translate(-2261.52 -1513.95)"/><path class="e" d="M3461.71,2077.74a6.17,6.17,0,1,1,0-12.33" transform="translate(-2261.52 -1513.95)"/><path class="e" d="M3461.71,2114.16a6.17,6.17,0,1,1,0-12.33" transform="translate(-2261.52 -1513.95)"/><path class="e" d="M3461.71,2150.57a6.17,6.17,0,1,1,0-12.33" transform="translate(-2261.52 -1513.95)"/><path class="e" d="M3498.46,2138.24a6.17,6.17,0,0,1,0,12.33" transform="translate(-2261.52 -1513.95)"/><path class="e" d="M3498.46,2101.83a6.17,6.17,0,0,1,0,12.33" transform="translate(-2261.52 -1513.95)"/><path class="e" d="M3498.46,2065.41a6.17,6.17,0,0,1,0,12.33" transform="translate(-2261.52 -1513.95)"/><path class="e" d="M3498.46,2029a6.17,6.17,0,0,1,0,12.33" transform="translate(-2261.52 -1513.95)"/><rect class="d" x="1282.36" y="503" width="32.67" height="36.42"/><rect class="d" x="1282.36" y="539.41" width="32.67" height="36.42"/><rect class="d" x="1282.36" y="575.83" width="32.67" height="36.42"/><rect class="d" x="1282.36" y="612.25" width="32.67" height="36.42"/><path class="e" d="M3541.71,2041.32a6.17,6.17,0,1,1,0-12.33" transform="translate(-2261.52 -1513.95)"/><path class="e" d="M3541.71,2077.74a6.17,6.17,0,1,1,0-12.33" transform="translate(-2261.52 -1513.95)"/><path class="e" d="M3541.71,2114.16a6.17,6.17,0,1,1,0-12.33" transform="translate(-2261.52 -1513.95)"/><path class="e" d="M3541.71,2150.57a6.17,6.17,0,1,1,0-12.33" transform="translate(-2261.52 -1513.95)"/><path class="e" d="M3578.46,2138.24a6.17,6.17,0,0,1,0,12.33" transform="translate(-2261.52 -1513.95)"/><path class="e" d="M3578.46,2101.83a6.17,6.17,0,0,1,0,12.33" transform="translate(-2261.52 -1513.95)"/><path class="e" d="M3578.46,2065.41a6.17,6.17,0,0,1,0,12.33" transform="translate(-2261.52 -1513.95)"/><path class="e" d="M3578.46,2029a6.17,6.17,0,0,1,0,12.33" transform="translate(-2261.52 -1513.95)"/><rect class="d" x="1012.73" y="503" width="32.67" height="36.42"/><rect class="d" x="1012.73" y="539.41" width="32.67" height="36.42"/><rect class="d" x="1012.73" y="575.83" width="32.67" height="36.42"/><rect class="d" x="1012.73" y="612.25" width="32.67" height="36.42"/><path class="e" d="M3272.09,2041.32a6.17,6.17,0,1,1,0-12.33" transform="translate(-2261.52 -1513.95)"/><path class="e" d="M3272.09,2077.74a6.17,6.17,0,1,1,0-12.33" transform="translate(-2261.52 -1513.95)"/><path class="e" d="M3272.09,2114.16a6.17,6.17,0,1,1,0-12.33" transform="translate(-2261.52 -1513.95)"/><path class="e" d="M3272.09,2150.57a6.17,6.17,0,1,1,0-12.33" transform="translate(-2261.52 -1513.95)"/><path class="e" d="M3308.84,2138.24a6.17,6.17,0,0,1,0,12.33" transform="translate(-2261.52 -1513.95)"/><path class="e" d="M3308.84,2101.83a6.17,6.17,0,0,1,0,12.33" transform="translate(-2261.52 -1513.95)"/><path class="e" d="M3308.84,2065.41a6.17,6.17,0,0,1,0,12.33" transform="translate(-2261.52 -1513.95)"/><path class="e" d="M3308.84,2029a6.17,6.17,0,0,1,0,12.33" transform="translate(-2261.52 -1513.95)"/><rect class="d" x="1092.73" y="503" width="32.67" height="36.42"/><rect class="d" x="1092.73" y="539.41" width="32.67" height="36.42"/><rect class="d" x="1092.73" y="575.83" width="32.67" height="36.42"/><rect class="d" x="1092.73" y="612.25" width="32.67" height="36.42"/><path class="e" d="M3352.09,2041.32a6.17,6.17,0,1,1,0-12.33" transform="translate(-2261.52 -1513.95)"/><path class="e" d="M3352.09,2077.74a6.17,6.17,0,1,1,0-12.33" transform="translate(-2261.52 -1513.95)"/><path class="e" d="M3352.09,2114.16a6.17,6.17,0,1,1,0-12.33" transform="translate(-2261.52 -1513.95)"/><path class="e" d="M3352.09,2150.57a6.17,6.17,0,1,1,0-12.33" transform="translate(-2261.52 -1513.95)"/><path class="e" d="M3388.84,2138.24a6.17,6.17,0,0,1,0,12.33" transform="translate(-2261.52 -1513.95)"/><path class="e" d="M3388.84,2101.83a6.17,6.17,0,0,1,0,12.33" transform="translate(-2261.52 -1513.95)"/><path class="e" d="M3388.84,2065.41a6.17,6.17,0,0,1,0,12.33" transform="translate(-2261.52 -1513.95)"/><path class="e" d="M3388.84,2029a6.17,6.17,0,0,1,0,12.33" transform="translate(-2261.52 -1513.95)"/><polyline class="c" points="1331.69 4.5 1331.69 24.33 1491.94 24.33 1491.94 431.33 1635.44 431.33 1635.44 487.33 1607.94 487.33"/><line class="c" x1="1607.94" y1="568.33" x2="1607.94" y2="648.83"/><line class="c" x1="1607.94" y1="616.83" x2="1590.94" y2="616.83"/><polyline class="c" points="1547.94 616.83 1519.44 616.83 1519.44 650.9"/><polyline class="c" points="1343.69 648.95 1343.69 619.83 1452.69 619.83 1452.69 648.83"/><polyline class="f" points="1607.94 594.21 1635.44 594.21 1635.44 646.79"/><line class="c" x1="1068.94" y1="395.83" x2="1068.94" y2="471.83"/><text class="g" transform="translate(89.54 57.59)">GREEN<tspan x="-1.15" y="18">HOUSE</tspan></text><text class="g" transform="translate(298.33 328.59)">LIB<tspan x="35.29" y="0">R</tspan><tspan x="49.47" y="0">A</tspan><tspan x="63.99" y="0">R</tspan><tspan x="77.83" y="0">Y</tspan></text><text class="g" transform="translate(615.42 110.23)">map<tspan x="-9.07" y="18">room</tspan></text><text class="g" transform="translate(791.18 600.2)">the<tspan x="-6.62" y="18">c</tspan><tspan class="h" x="7.04" y="18">a</tspan><tspan x="20.81" y="18">ve</tspan></text><text class="i" transform="translate(866.59 176.54)">L<tspan class="j" x="11.69" y="0">O</tspan><tspan class="j" x="27.52" y="0">ADING</tspan><tspan class="j"><tspan x="18.82" y="18">DOCK</tspan></tspan></text><text class="g" transform="translate(1101.26 152.16)">the<tspan x="-7.78" y="18">shop</tspan></text><text class="g" transform="translate(284.6 501.84)">S<tspan x="12.01" y="0">tudio</tspan></text><rect class="k" x="2236.49" y="1705.34" width="87.8" height="33.74" transform="translate(-1703.34 2488.64) rotate(-90)"/><text class="g" transform="translate(449.58 501.84)">ki<tspan x="24.29" y="0">t</tspan><tspan x="37.15" y="0">chen</tspan></text><path class="l" d="M2279.22,1739.25V1738a1.66,1.66,0,0,1,.16-0.95,0.91,0.91,0,0,1,.85-0.35,0.9,0.9,0,0,1,.84.35,1.66,1.66,0,0,1,.16.95v1.23h1.4v-2a1.66,1.66,0,0,1,.16-0.94,0.91,0.91,0,0,1,.85-0.35,0.9,0.9,0,0,1,.84.35,1.66,1.66,0,0,1,.16.94v3.12a0.94,0.94,0,0,1-1.12,1.12h-6.25a0.94,0.94,0,0,1-1.12-1.12v-2.89a1.66,1.66,0,0,1,.16-0.95,0.91,0.91,0,0,1,.85-0.35,0.9,0.9,0,0,1,.84.35,1.66,1.66,0,0,1,.16.95v1.73h1.05Z" transform="translate(-2261.52 -1513.95)"/><path class="l" d="M2277.07,1725.93a1.69,1.69,0,0,1-1-1.71c0-.85.29-1.09,0.63-1.09a1.44,1.44,0,0,1,.85.41l2.7,2.06,2.87-2.15a1.65,1.65,0,0,1,.91-0.43c0.39,0,.67.34,0.67,1.18a1.79,1.79,0,0,1-1,1.77l-1.89,1.21,1.92,1.19a1.73,1.73,0,0,1,1,1.71c0,0.85-.29,1.09-0.64,1.09a1.45,1.45,0,0,1-.84-0.39l-2.91-2.19-2.66,2a1.67,1.67,0,0,1-.91.43c-0.39,0-.67-0.34-0.67-1.18a1.79,1.79,0,0,1,1-1.77l1.67-1.05Z" transform="translate(-2261.52 -1513.95)"/><path class="l" d="M2283.41,1715.31a1.46,1.46,0,0,1,.95.18,1.62,1.62,0,0,1,0,2,1.46,1.46,0,0,1-.95.18h-6a1.46,1.46,0,0,1-.94-0.18,1.62,1.62,0,0,1,0-2,1.46,1.46,0,0,1,.94-0.18h6Z" transform="translate(-2261.52 -1513.95)"/><path class="l" d="M2283.41,1705.32a1.46,1.46,0,0,1,.95.18,1.62,1.62,0,0,1,0,2,1.46,1.46,0,0,1-.95.18h-5.09v1.13a1.55,1.55,0,0,1-.17.95,1.33,1.33,0,0,1-1.81,0,1.55,1.55,0,0,1-.17-0.95v-4.65a1.55,1.55,0,0,1,.17-0.95,1.33,1.33,0,0,1,1.81,0,1.55,1.55,0,0,1,.17.95v1.13h5.09Z" transform="translate(-2261.52 -1513.95)"/><rect class="k" x="3900.56" y="2034.47" width="87.8" height="33.74" transform="translate(3734.28 -3407.08) rotate(90)"/><path class="l" d="M3945.63,2034.29v1.23a1.66,1.66,0,0,1-.16.95,0.91,0.91,0,0,1-.85.35,0.9,0.9,0,0,1-.84-0.35,1.66,1.66,0,0,1-.16-0.95v-1.23h-1.4v2a1.66,1.66,0,0,1-.16.94,0.91,0.91,0,0,1-.85.35,0.9,0.9,0,0,1-.84-0.35,1.66,1.66,0,0,1-.16-0.94v-3.12a0.94,0.94,0,0,1,1.12-1.12h6.25a0.94,0.94,0,0,1,1.12,1.12V2036a1.66,1.66,0,0,1-.16.95,0.91,0.91,0,0,1-.85.35,0.9,0.9,0,0,1-.84-0.35,1.66,1.66,0,0,1-.16-0.95v-1.73h-1.05Z" transform="translate(-2261.52 -1513.95)"/><path class="l" d="M3947.79,2047.62a1.69,1.69,0,0,1,1,1.71c0,0.85-.29,1.09-0.63,1.09a1.44,1.44,0,0,1-.85-0.41l-2.7-2.06-2.87,2.15a1.65,1.65,0,0,1-.91.43c-0.39,0-.67-0.34-0.67-1.18a1.79,1.79,0,0,1,1-1.77l1.89-1.21-1.92-1.19a1.73,1.73,0,0,1-1-1.71c0-.85.29-1.09,0.64-1.09a1.45,1.45,0,0,1,.84.39l2.91,2.19,2.66-2a1.67,1.67,0,0,1,.91-0.43c0.39,0,.67.34,0.67,1.18a1.79,1.79,0,0,1-1,1.77l-1.67,1.05Z" transform="translate(-2261.52 -1513.95)"/><path class="l" d="M3941.45,2058.24a1.46,1.46,0,0,1-.95-0.18,1.62,1.62,0,0,1,0-2,1.46,1.46,0,0,1,.95-0.18h6a1.46,1.46,0,0,1,.94.18,1.62,1.62,0,0,1,0,2,1.46,1.46,0,0,1-.94.18h-6Z" transform="translate(-2261.52 -1513.95)"/><path class="l" d="M3941.45,2068.23a1.46,1.46,0,0,1-.95-0.18,1.62,1.62,0,0,1,0-2,1.46,1.46,0,0,1,.95-0.18h5.09v-1.13a1.55,1.55,0,0,1,.17-0.95,1.33,1.33,0,0,1,1.81,0,1.55,1.55,0,0,1,.17.95v4.65a1.55,1.55,0,0,1-.17.95,1.33,1.33,0,0,1-1.81,0,1.55,1.55,0,0,1-.17-0.95v-1.13h-5.09Z" transform="translate(-2261.52 -1513.95)"/><line class="a" x1="416.84" y1="575.83" x2="416.84" y2="404.8"/></svg>