<svg xmlns="http://www.w3.org/2000/svg" viewBox="0 0 1701.81 651.33"><defs><style>.a,.k{fill:#fff;}.a,.b,.c,.d,.f,.j{stroke:#ccc;stroke-miterlimit:10;}.a,.b,.c{stroke-width:5px;}.b{fill:#fcf9d6;}.c,.d,.f{fill:none;}.d{stroke-width:5.28px;}.e{fill:#ccc;}.f{stroke-width:5.1px;}.g,.h{font-size:15px;fill:#686868;font-family:DomusTitlingExtrabold;}.g,.i{letter-spacing:4px;}.h{letter-spacing:3px;}.j{fill:#ff362c;stroke-width:4px;}</style></defs><title>isl-paw-illustrations</title><path class="a" d="M1682.94 648.83H20.83L18.87 2.54h1664.07v646.29"/><path class="b" d="M698.57 5.54v207.63h-123.4V5.54M18.87 2.5h217.57v111.65H18.87z"/><path class="a" d="M19.99 372.83h154.43v37.97h50.46v142.02h-53.94v23.01h278.3V648H20.83l-.84-275.17"/><path class="b" d="M224.88 410.8H575.17v238.03H449.24v-73h-278.3v-23.01h53.94V410.8M269.59 408.8V232.72h147.25V407.8M698.95 163.83h72v233h29.53v47h55.51l37-48h176v-59h-68v-61l162-273.29H699.34z"/><path class="c" d="M892.94 395.83v71h40M952.94 395.83v71h40M1012.94 395.83v71h40M1162.94 2.54v334.45h-57.5"/><path class="b" d="M1379.44 421.83h-95.5v-96.67h95.5v96.67"/><path class="b" d="M1379.44 325.16h-95.5V228.5h95.5v96.66M857.49 648.54h-95.5v-96.67h95.5v96.67M1379.44 228.5h-95.5v-96.67h95.5v96.67"/><path class="d" d="M1202.36 42.91h32.67v36.42h-32.67zM1202.36 79.33h32.67v36.42h-32.67zM1202.36 115.75h32.67v36.42h-32.67z"/><path class="d" d="M1202.36 152.16h32.67v36.42h-32.67z"/><path class="e" d="M1200.19 67.29a6.17 6.17 0 1 1 0-12.33M1200.19 103.71a6.17 6.17 0 1 1 0-12.33M1200.19 140.12a6.17 6.17 0 1 1 0-12.33M1200.19 176.54a6.17 6.17 0 1 1 0-12.33M1236.94 164.21a6.17 6.17 0 0 1 0 12.33M1236.94 127.79a6.17 6.17 0 0 1 0 12.33M1236.94 91.38a6.17 6.17 0 0 1 0 12.33"/><path class="d" d="M1202.36 201.16h32.67v36.42h-32.67zM1202.36 237.58h32.67V274h-32.67zM1202.36 274h32.67v36.42h-32.67z"/><path class="e" d="M1200.19 225.54a6.17 6.17 0 1 1 0-12.33M1200.19 261.96a6.17 6.17 0 1 1 0-12.33M1200.19 298.37a6.17 6.17 0 1 1 0-12.33M1236.94 286.05a6.17 6.17 0 0 1 0 12.33M1236.94 249.63a6.17 6.17 0 0 1 0 12.33M1236.94 213.21a6.17 6.17 0 0 1 0 12.33M1236.94 54.96a6.17 6.17 0 0 1 0 12.33"/><path class="d" d="M1202.36 323h32.67v36.42h-32.67z"/><path class="d" d="M1202.36 359.41h32.67v36.42h-32.67z"/><path class="d" d="M1202.36 395.83h32.67v36.42h-32.67zM1202.36 432.25h32.67v36.42h-32.67z"/><path class="e" d="M1200.19 347.37a6.17 6.17 0 1 1 0-12.33M1200.19 383.79a6.17 6.17 0 1 1 0-12.33M1200.19 420.21a6.17 6.17 0 1 1 0-12.33M1200.19 456.62a6.17 6.17 0 1 1 0-12.33M1236.94 444.29a6.17 6.17 0 0 1 0 12.33M1236.94 407.88a6.17 6.17 0 0 1 0 12.33M1236.94 371.46a6.17 6.17 0 0 1 0 12.33M1236.94 335.05a6.17 6.17 0 0 1 0 12.33"/><path class="d" d="M1424.36 42.91h32.67v36.42h-32.67zM1424.36 79.33h32.67v36.42h-32.67zM1424.36 115.75h32.67v36.42h-32.67z"/><path class="d" d="M1424.36 152.16h32.67v36.42h-32.67z"/><path class="e" d="M1422.2 67.29a6.17 6.17 0 1 1 0-12.33M1422.2 103.71a6.17 6.17 0 1 1 0-12.33M1422.2 140.12a6.17 6.17 0 1 1 0-12.33M1422.2 176.54a6.17 6.17 0 1 1 0-12.33M1458.95 164.21a6.17 6.17 0 0 1 0 12.33M1458.95 127.79a6.17 6.17 0 0 1 0 12.33M1458.95 91.38a6.17 6.17 0 0 1 0 12.33"/><path class="d" d="M1424.36 201.16h32.67v36.42h-32.67zM1424.36 237.58h32.67V274h-32.67zM1424.36 274h32.67v36.42h-32.67z"/><path class="e" d="M1422.2 225.54a6.17 6.17 0 1 1 0-12.33M1422.2 261.96a6.17 6.17 0 1 1 0-12.33M1422.2 298.37a6.17 6.17 0 1 1 0-12.33M1458.95 286.05a6.17 6.17 0 0 1 0 12.33M1458.95 249.63a6.17 6.17 0 0 1 0 12.33M1458.95 213.21a6.17 6.17 0 0 1 0 12.33M1458.95 54.96a6.17 6.17 0 0 1 0 12.33"/><path class="d" d="M1424.36 323h32.67v36.42h-32.67z"/><path class="d" d="M1424.36 359.41h32.67v36.42h-32.67z"/><path class="d" d="M1424.36 395.83h32.67v36.42h-32.67zM1424.36 432.25h32.67v36.42h-32.67z"/><path class="e" d="M1422.2 347.37a6.17 6.17 0 1 1 0-12.33M1422.2 383.79a6.17 6.17 0 1 1 0-12.33M1422.2 420.21a6.17 6.17 0 1 1 0-12.33M1422.2 456.62a6.17 6.17 0 1 1 0-12.33M1458.95 444.29a6.17 6.17 0 0 1 0 12.33M1458.95 407.88a6.17 6.17 0 0 1 0 12.33M1458.95 371.46a6.17 6.17 0 0 1 0 12.33M1458.95 335.05a6.17 6.17 0 0 1 0 12.33"/><path class="d" d="M1202.36 503h32.67v36.42h-32.67z"/><path class="d" d="M1202.36 539.41h32.67v36.42h-32.67zM1202.36 575.83h32.67v36.42h-32.67zM1202.36 612.25h32.67v36.42h-32.67z"/><path class="e" d="M1200.19 527.37a6.17 6.17 0 1 1 0-12.33M1200.19 563.79a6.17 6.17 0 1 1 0-12.33M1200.19 600.21a6.17 6.17 0 1 1 0-12.33M1200.19 636.62a6.17 6.17 0 1 1 0-12.33M1236.94 624.29a6.17 6.17 0 0 1 0 12.33M1236.94 587.88a6.17 6.17 0 0 1 0 12.33M1236.94 551.46a6.17 6.17 0 0 1 0 12.33M1236.94 515.05a6.17 6.17 0 0 1 0 12.33"/><path class="d" d="M1282.36 503h32.67v36.42h-32.67z"/><path class="d" d="M1282.36 539.41h32.67v36.42h-32.67zM1282.36 575.83h32.67v36.42h-32.67zM1282.36 612.25h32.67v36.42h-32.67z"/><path class="e" d="M1280.19 527.37a6.17 6.17 0 1 1 0-12.33M1280.19 563.79a6.17 6.17 0 1 1 0-12.33M1280.19 600.21a6.17 6.17 0 1 1 0-12.33M1280.19 636.62a6.17 6.17 0 1 1 0-12.33M1316.94 624.29a6.17 6.17 0 0 1 0 12.33M1316.94 587.88a6.17 6.17 0 0 1 0 12.33M1316.94 551.46a6.17 6.17 0 0 1 0 12.33M1316.94 515.05a6.17 6.17 0 0 1 0 12.33"/><path class="d" d="M1012.73 503h32.67v36.42h-32.67z"/><path class="d" d="M1012.73 539.41h32.67v36.42h-32.67zM1012.73 575.83h32.67v36.42h-32.67zM1012.73 612.25h32.67v36.42h-32.67z"/><path class="e" d="M1010.57 527.37a6.17 6.17 0 1 1 0-12.33M1010.57 563.79a6.17 6.17 0 1 1 0-12.33M1010.57 600.21a6.17 6.17 0 1 1 0-12.33M1010.57 636.62a6.17 6.17 0 1 1 0-12.33M1047.32 624.29a6.17 6.17 0 0 1 0 12.33M1047.32 587.88a6.17 6.17 0 0 1 0 12.33M1047.32 551.46a6.17 6.17 0 0 1 0 12.33M1047.32 515.05a6.17 6.17 0 0 1 0 12.33"/><path class="d" d="M1092.73 503h32.67v36.42h-32.67z"/><path class="d" d="M1092.73 539.41h32.67v36.42h-32.67zM1092.73 575.83h32.67v36.42h-32.67zM1092.73 612.25h32.67v36.42h-32.67z"/><path class="e" d="M1090.57 527.37a6.17 6.17 0 1 1 0-12.33M1090.57 563.79a6.17 6.17 0 1 1 0-12.33M1090.57 600.21a6.17 6.17 0 1 1 0-12.33M1090.57 636.62a6.17 6.17 0 1 1 0-12.33M1127.32 624.29a6.17 6.17 0 0 1 0 12.33M1127.32 587.88a6.17 6.17 0 0 1 0 12.33M1127.32 551.46a6.17 6.17 0 0 1 0 12.33M1127.32 515.05a6.17 6.17 0 0 1 0 12.33"/><path class="c" d="M1331.69 4.5v19.83h160.25v407h143.5v56h-27.5M1607.94 568.33v80.5M1607.94 616.83h-17M1547.94 616.83h-28.5v34.07M1343.69 648.95v-29.12h109v29"/><path class="f" d="M1607.94 594.21h27.5v52.58"/><path class="c" d="M1068.94 395.83v76"/><text class="g" transform="translate(91.95 57.59)">GREEN<tspan x="-1.1" y="18">HOUSE</tspan></text><text class="g" transform="translate(302.58 328.59)">LIB<tspan x="32.29" y="0">R</tspan><tspan x="44.94" y="0">A</tspan><tspan x="58.62" y="0">R</tspan><tspan x="71.02" y="0">Y</tspan></text><text class="g" transform="translate(617.51 110.23)">map<tspan x="-4.98" y="18">r</tspan><tspan x="4.27" y="18">oom</tspan></text><text class="g" transform="translate(794.84 600.2)">the<tspan x="-6.05" y="18">c</tspan><tspan x="5.17" y="18">a</tspan><tspan x="16.78" y="18">v</tspan><tspan x="28.34" y="18">e</tspan></text><text class="h" transform="translate(869.97 176.54)">L<tspan class="i" x="11" y="0">O</tspan><tspan class="i" x="25.62" y="0">ADING</tspan><tspan class="i"><tspan x="17.64" y="18">DOCK</tspan></tspan></text><text class="g" transform="translate(1104.91 152.16)">the<tspan x="-7.36" y="18">shop</tspan></text><text class="g" transform="translate(291.5 501.84)">S<tspan x="11.85" y="0">tudio</tspan></text><path class="j" d="M2 252.15v-87.8h33.74v87.8z"/><text class="g" transform="translate(458.12 501.84)">k<tspan x="11.79" y="0">i</tspan><tspan x="19.8" y="0">t</tspan><tspan x="29.17" y="0">chen</tspan></text><path class="k" d="M17.7 225.3v-1.25a1.66 1.66 0 0 1 .16-.95.91.91 0 0 1 .85-.35.9.9 0 0 1 .84.35 1.66 1.66 0 0 1 .16.95v1.23h1.4v-2a1.66 1.66 0 0 1 .16-.94.91.91 0 0 1 .85-.35.9.9 0 0 1 .84.35 1.66 1.66 0 0 1 .16.94v3.12a.94.94 0 0 1-1.12 1.12h-6.25a.94.94 0 0 1-1.12-1.12v-2.89a1.66 1.66 0 0 1 .16-.95.91.91 0 0 1 .85-.35.9.9 0 0 1 .84.35 1.66 1.66 0 0 1 .16.95v1.73h1.05zM15.55 211.98a1.69 1.69 0 0 1-1-1.71c0-.85.29-1.09.63-1.09a1.44 1.44 0 0 1 .85.41l2.7 2.06 2.87-2.15a1.65 1.65 0 0 1 .91-.43c.39 0 .67.34.67 1.18a1.79 1.79 0 0 1-1 1.77l-1.89 1.21 1.92 1.19a1.73 1.73 0 0 1 1 1.71c0 .85-.29 1.09-.64 1.09a1.45 1.45 0 0 1-.84-.39l-2.91-2.19-2.66 2a1.67 1.67 0 0 1-.91.43c-.39 0-.67-.34-.67-1.18a1.79 1.79 0 0 1 1-1.77l1.67-1.05zM21.89 201.36a1.46 1.46 0 0 1 .95.18 1.62 1.62 0 0 1 0 2 1.46 1.46 0 0 1-.95.18h-6a1.46 1.46 0 0 1-.94-.18 1.62 1.62 0 0 1 0-2 1.46 1.46 0 0 1 .94-.18h6zM21.89 191.37a1.46 1.46 0 0 1 .95.18 1.62 1.62 0 0 1 0 2 1.46 1.46 0 0 1-.95.18H16.8v1.13a1.55 1.55 0 0 1-.17.95 1.33 1.33 0 0 1-1.81 0 1.55 1.55 0 0 1-.17-.95v-4.65a1.55 1.55 0 0 1 .17-.95 1.33 1.33 0 0 1 1.81 0 1.55 1.55 0 0 1 .17.95v1.13h5.09z"/><path class="j" d="M1699.81 493.48v87.8h-33.74v-87.8z"/><path class="k" d="M1684.11 520.34v1.23a1.66 1.66 0 0 1-.16.95.91.91 0 0 1-.85.35.9.9 0 0 1-.84-.35 1.66 1.66 0 0 1-.16-.95v-1.23h-1.4v2a1.66 1.66 0 0 1-.16.94.91.91 0 0 1-.85.35.9.9 0 0 1-.84-.35 1.66 1.66 0 0 1-.16-.94v-3.12a.94.94 0 0 1 1.12-1.12h6.25a.94.94 0 0 1 1.12 1.12v2.83a1.66 1.66 0 0 1-.16.95.91.91 0 0 1-.85.35.9.9 0 0 1-.84-.35 1.66 1.66 0 0 1-.16-.95v-1.73h-1.05zM1686.27 533.67a1.69 1.69 0 0 1 1 1.71c0 .85-.29 1.09-.63 1.09a1.44 1.44 0 0 1-.85-.41l-2.7-2.06-2.87 2.15a1.65 1.65 0 0 1-.91.43c-.39 0-.67-.34-.67-1.18a1.79 1.79 0 0 1 1-1.77l1.89-1.21-1.92-1.19a1.73 1.73 0 0 1-1-1.71c0-.85.29-1.09.64-1.09a1.45 1.45 0 0 1 .84.39l2.91 2.19 2.66-2a1.67 1.67 0 0 1 .91-.43c.39 0 .67.34.67 1.18a1.79 1.79 0 0 1-1 1.77l-1.67 1.05zM1679.93 544.29a1.46 1.46 0 0 1-.95-.18 1.62 1.62 0 0 1 0-2 1.46 1.46 0 0 1 .95-.18h6a1.46 1.46 0 0 1 .94.18 1.62 1.62 0 0 1 0 2 1.46 1.46 0 0 1-.94.18h-6zM1679.93 554.28a1.46 1.46 0 0 1-.95-.18 1.62 1.62 0 0 1 0-2 1.46 1.46 0 0 1 .95-.18h5.09v-1.13a1.55 1.55 0 0 1 .17-.95 1.33 1.33 0 0 1 1.81 0 1.55 1.55 0 0 1 .17.95v4.65a1.55 1.55 0 0 1-.17.95 1.33 1.33 0 0 1-1.81 0 1.55 1.55 0 0 1-.17-.95v-1.13h-5.09z"/><path class="a" d="M416.84 575.83V404.8"/></svg>