<svg version="1.1" id="Layer_1" xmlns="http://www.w3.org/2000/svg" xmlns:xlink="http://www.w3.org/1999/xlink" x="0px" y="0px"
	 viewBox="0 0 172.7 163" style="enable-background:new 0 0 172.7 163;" xml:space="preserve">
<style type="text/css">
	.st0{fill:#5D5D5D;}
	.st1{fill:#FFFFFF;}
	.st2{fill:#FFEB5A;stroke:#5D5D5D;stroke-width:2;stroke-miterlimit:10;}
	.st3{fill:#3195FF;}
</style>
<g>
	<path class="st0" d="M166.4,47.9h-1.9c-2.5,0-4.5-2-4.5-4.5v0c0-2.5,2-4.5,4.5-4.5h1.9c2.5,0,4.5,2,4.5,4.5v0
		C170.9,45.9,168.9,47.9,166.4,47.9z"/>
	<path class="st1" d="M106.3,2.1h17.4l16.8,11.6l5.3,6.3l5.4,9.9v7.7h19.6l-3.8,20.7l-7.2,12.1l-16.1,8h-10.2l1.2,59.7l4.3,5.3
		l-0.5,7.4l-6,5l-11.5-3.9l-2,4.3l-8.8,3.2l-8.8-3.2l-3.7-5.1l-6.5,6.9H34.9l-16.8-5.2L6.2,138.1l-1-10.1v-6.6l-3.1-9.6l5.2-6.6
		c0,0-1.9-18.5-0.8-18.6S12.3,74,12.3,74h5.8l4.7,31.7l9.1,30l6.6,9.4l6.9-33.3l8.8-20.2l22.3-26.4l6.1-9.1c0,0-9.9-7.6-10.2-14
		s2.2-18.5,7.2-24.9S106.3,2.1,106.3,2.1z"/>
	<path class="st2" d="M142.4,84.6c-3.9,3-4.2,8.6-1.2,12.6c2.8,3.7,9.5,5,13,5.5c1.2,0.2,2.3-0.7,2.4-1.8c0.5-3.4,1.1-10.3-1.7-14
		C151.9,82.9,146.4,81.6,142.4,84.6z M150.7,94.4c-1.9,2-5.1,1.5-6.4-0.9c-0.8-1.5-0.5-3.3,0.6-4.5c1.9-2,5.1-1.5,6.4,0.9
		C152.1,91.4,151.8,93.2,150.7,94.4z"/>
	<path class="st0" d="M172.6,38.7c-0.1-1.4-1.3-2.5-2.7-2.5h-16.1c-1.4-19.5-17.3-35.2-36.9-36.2c-0.2,0-0.4-0.1-0.5-0.1
		c-0.3,0-0.5,0-0.8,0c-0.2,0-0.5,0-0.7,0c-2.8,0-5.5,0.3-8.2,0.9c-9.1,1.7-17.4,5.7-24,11.7C74.7,19.7,70,29.4,69.8,38.4
		c-0.1,7.2,2.9,14.9,10.6,19.4c0.5,0.3,0,0.7-0.2,0.8c-7.4,6-18.5,18.2-27.6,34.6c-8.1,14.6-13.3,30-15.7,46
		c-3.8-6.9-7-15.6-9.5-25.9c-3.6-14.5-4.8-28.4-5.3-35.3c-0.2-3.6-3.2-6.4-6.8-6.4h0c-2.5,0-4.8,1.4-6,3.6C5.8,82.1,4.2,90,4.7,98.9
		c0.1,2.3,0.4,4.7,0.8,7.2c-1.6,0.3-3.1,1.3-4.2,2.6c-1.3,1.7-1.7,3.9-1,6c1.2,4,2.8,8.1,4.3,11.6c-1.1,0.6-2,1.4-2.6,2.4
		c-1.2,2-1.4,4.5-0.3,6.6c5.3,10.6,12.3,18.4,20.9,23c7.2,3.9,18.6,4.3,18.7,4.3c0.7,0,38.6,0,38.6,0c0.3,0,1,0,2,0
		c3.6,0,10.7-0.4,15.1-4.4c0.5-0.5,1-1,1.4-1.5c0.1,0.2,0.3,0.4,0.4,0.6c1.7,2.5,5.1,5.4,11.4,5.4c2.8,0,5.7-0.6,8.6-1.9
		c1.8-0.8,3.2-2.1,4.2-3.7c1.5,0.5,3.2,0.8,5.2,0.8c2.8,0,5.7-0.6,8.6-1.9c3.6-1.6,5.9-5.2,5.6-9.3c-0.1-2.4-1.3-4.7-3-6.4l-0.9-0.9
		c-0.8-0.8-1.2-1.8-1.2-2.9V82c10.7-0.5,19.2-4.1,25.3-10.7C174.1,58.5,172.6,39.6,172.6,38.7z M136.9,148c-0.1,1.5-1,2.8-2.4,3.4
		c-2.2,1-4.3,1.4-6.3,1.4c-1.3,0-2.6-0.1-3.8-0.6c-0.1-2.5-1.1-4.8-2.9-6.5l-1-1c-0.6-0.6-1-1.3-1.2-2.1c0-0.7-0.1-1.5-0.1-2.3V103
		v-5.7c0-1.2-0.8-2.4-1.9-2.7c-0.1,0-0.2,0-0.2-0.1c0,0,0,0-0.1,0c-0.1,0-0.1,0-0.2,0c0,0,0,0,0,0c-0.1,0-0.1,0-0.2,0
		c0,0-0.1,0-0.1,0c-0.1,0-0.1,0-0.1,0c-0.1,0-0.1,0-0.2,0c-0.1,0-0.1,0-0.2,0c0,0,0,0-0.1,0c-0.1,0-0.2,0-0.2,0.1
		c-1.1,0.3-1.9,1.4-1.9,2.6v0.1v5.7v37.2v1.5c0,0.5,0,1,0.1,1.5c0.3,2,1.3,3.9,2.8,5.3l0.9,0.9c0.8,0.8,1.4,1.9,1.3,3.1
		c0,0.7-0.2,1.4-0.6,2c-0.4,0.7-1,1.2-1.8,1.5c-2.2,1-4.3,1.4-6.3,1.4c-4.2,0-9-1.4-9-12.5v-29.3c0-1.2-0.8-2.4-1.9-2.7
		c-0.1,0-0.2,0-0.2-0.1c0,0,0,0-0.1,0c-0.1,0-0.1,0-0.2,0c0,0,0,0,0,0c-0.1,0-0.1,0-0.2,0c0,0-0.1,0-0.1,0s-0.1,0-0.1,0
		c-0.1,0-0.1,0-0.2,0c-0.1,0-0.1,0-0.2,0c0,0,0,0-0.1,0c-0.1,0-0.2,0-0.2,0.1c-1.1,0.3-1.9,1.4-1.9,2.6v0.1v24.3
		c-1.1-3.1-24.7-2.5-25.4-2.5h-7.1c-1.1,0-2.2,0.8-2.6,1.8c0,0,0,0,0,0.1c0,0.1,0,0.1-0.1,0.2c0,0.1,0,0.1-0.1,0.2c0,0,0,0.1,0,0.1
		c0,0.1,0,0.2,0,0.3c0,0,0,0,0,0c0,0,0,0,0,0c0,0.1,0,0.1,0,0.2c0,0,0,0.1,0,0.1c0,0.1,0,0.2,0,0.3c0,0.1,0,0.1,0,0.2
		c0,0,0,0.1,0,0.1c0,0,0,0.1,0,0.1c0,0.1,0,0.2,0.1,0.3c0,0.1,0,0.1,0.1,0.2c0,0.1,0.1,0.2,0.2,0.3c0,0,0,0.1,0.1,0.1
		c0.5,0.7,1.3,1.2,2.3,1.2c0,0,0,0,0.1,0c0.5,0,0.9,0,1.4,0c0.3,0,26.4-0.6,29.4,2.3c0.6,0.6,1.4,1.6,1.4,4.1c0,2-0.6,3.6-1.9,4.8
		c-3.4,3.1-10.6,3.3-13.1,3.1c-0.1,0-0.2,0-0.2,0c0,0-39,0-39.1,0c-1.4,0-3.3,0.2-5.4-0.2c-8.2-1.4-20.3-6.6-29-24.3
		c-0.5-1,0.3-2,1.2-2c0.3,0,0.6,0.1,0.9,0.4l2.2,1.9c0.3,0.2,0.6,0.4,0.9,0.4c0.9,0,1.7-1,1.2-2c-2.3-4.8-5.4-11.6-7.5-18.5
		c-0.3-1,0.5-1.8,1.3-1.8c0.4,0,0.9,0.2,1.2,0.7c1.1,1.9,2.2,3.9,3.4,5.8c0.3,0.5,0.7,0.7,1.1,0.7c0.8,0,1.7-0.8,1.3-1.8
		c-3.4-9.8-6.7-25.6,0.3-38.8c0.3-0.5,0.7-0.7,1.2-0.7c0.7,0,1.3,0.5,1.4,1.3c0.8,12.3,4.2,48,19.2,69.6c1.6,2.3,5.4,1,5.7-1.5
		c3.8-38.4,24.3-67,38.1-80.2c3.4,2.7,11.1,8,22.8,12.1c11.6,4.1,23.4,5.7,29.2,6.2V137c0,2.6,1.1,5.1,2.9,6.8l0.9,0.9
		C136.5,145.5,137,146.7,136.9,148z M158.5,67.5c-5.1,5.6-13.5,9-21.9,9S118.8,74.4,109,71c-10-3.5-21.7-10.4-22.8-11.2
		c2.1,0.7,5.3,2.2,11.6,2.2c8.3,0,14.3-2.6,17.8-7.7c7.6-11,0.1-29.3-0.2-30.1c-0.6-1.5-2.4-2.1-3.8-1.4c-1.2,0.7-1.7,2.2-1.2,3.5
		c1.9,4.6,5.6,17.7,0.7,24.8c-2.6,3.7-7.4,5.5-14.3,5.3c-4.8-0.1-8.9-1.1-12.2-2.7c-4.4-2.2-7.4-5.7-8.6-10.2
		c-0.4-1.6-0.6-3.2-0.6-5c0-2,0.3-4,0.9-6.1c1.6-5.7,5.1-11.3,10.1-15.9c5.8-5.4,13.3-8.9,21.5-10.4c2.4-0.4,4.9-0.7,7.4-0.7
		c18.3,0.2,33.1,15.1,33.2,33.5c0,1.5,1.2,2.8,2.8,2.8h5.7c0.3,2.5,1.7,10.3,9.3,9.8C165,56.8,162.8,62.8,158.5,67.5z"/>
	<path class="st3" d="M131.7,84.8v-8.5c0,0-13.9-2.3-24.2-6c-10.3-3.7-21.3-10.6-21.3-10.6s-0.4,0.4-2.8,2.9s-3.6,3.8-3.6,3.8
		s6.2,6.3,23.5,12.4C120.5,84.9,131.7,84.8,131.7,84.8z"/>
</g>
</svg>
