<svg id="Layer_1" data-name="Layer 1" xmlns="http://www.w3.org/2000/svg" viewBox="0 0 1701.81 651.33"><defs><style>.cls-1,.cls-8{fill:#fff;}.cls-1,.cls-2,.cls-3,.cls-4,.cls-6,.cls-7{stroke:#ccc;stroke-miterlimit:10;}.cls-1,.cls-2,.cls-3{stroke-width:5px;}.cls-2{fill:#fcf9d6;}.cls-3,.cls-4,.cls-6{fill:none;}.cls-4{stroke-width:5.28px;}.cls-5{fill:#ccc;}.cls-6{stroke-width:5.1px;}.cls-7{fill:#ff362c;stroke-width:4px;}</style></defs><title>isl-paw-map</title><polygon class="cls-1" points="1682.94 648.83 20.83 648.83 18.87 2.54 1682.94 2.54 1682.94 648.83"/><polyline class="cls-2" points="698.57 5.54 698.57 213.17 575.17 213.17 575.17 5.54"/><rect class="cls-2" x="18.87" y="2.5" width="217.57" height="111.65"/><polygon class="cls-1" points="19.99 372.83 174.42 372.83 174.42 410.8 224.88 410.8 224.88 552.82 170.94 552.82 170.94 575.83 449.24 575.83 449.24 648 20.83 648 19.99 372.83"/><polygon class="cls-2" points="224.88 410.8 416.5 410.8 575.17 410.8 575.17 648.83 449.24 648.83 449.24 575.83 170.94 575.83 170.94 552.82 224.88 552.82 224.88 410.8"/><polyline class="cls-2" points="269.59 408.8 269.59 232.72 416.84 232.72 416.84 407.8"/><path class="cls-2" d="M808.25,379h72V612h29.49v47h55.51l37-48h176V552h-68V491l162-273.29H808.64Z" transform="translate(-109.31 -215.2)"/><polyline class="cls-3" points="892.94 395.83 892.94 466.83 932.94 466.83"/><polyline class="cls-3" points="952.94 395.83 952.94 466.83 992.94 466.83"/><polyline class="cls-3" points="1012.94 395.83 1012.94 466.83 1052.94 466.83"/><polyline class="cls-3" points="1162.94 2.54 1162.94 336.99 1105.44 336.99"/><polygon class="cls-2" points="1379.44 421.83 1283.94 421.83 1283.94 350.16 1283.94 325.16 1379.44 325.16 1379.44 421.83"/><polygon class="cls-2" points="1379.44 325.16 1283.94 325.16 1283.94 253.5 1283.94 228.5 1379.44 228.5 1379.44 325.16"/><polygon class="cls-2" points="857.49 648.54 761.99 648.54 761.99 576.87 761.99 551.87 857.49 551.87 857.49 648.54"/><polygon class="cls-2" points="1379.44 228.5 1283.94 228.5 1283.94 156.83 1283.94 131.83 1379.44 131.83 1379.44 228.5"/><rect class="cls-4" x="1202.36" y="42.91" width="32.67" height="36.42"/><rect class="cls-4" x="1202.36" y="79.33" width="32.67" height="36.42"/><rect class="cls-4" x="1202.36" y="115.75" width="32.67" height="36.42"/><rect class="cls-4" x="1202.36" y="152.16" width="32.67" height="36.42"/><path class="cls-5" d="M1309.5,282.49a6.17,6.17,0,0,1,0-12.33" transform="translate(-109.31 -215.2)"/><path class="cls-5" d="M1309.5,318.91a6.17,6.17,0,0,1,0-12.33" transform="translate(-109.31 -215.2)"/><path class="cls-5" d="M1309.5,355.33a6.17,6.17,0,0,1,0-12.33" transform="translate(-109.31 -215.2)"/><path class="cls-5" d="M1309.5,391.74a6.17,6.17,0,0,1,0-12.33" transform="translate(-109.31 -215.2)"/><path class="cls-5" d="M1346.25,379.41a6.17,6.17,0,1,1,0,12.33" transform="translate(-109.31 -215.2)"/><path class="cls-5" d="M1346.25,343a6.17,6.17,0,1,1,0,12.33" transform="translate(-109.31 -215.2)"/><path class="cls-5" d="M1346.25,306.58a6.17,6.17,0,1,1,0,12.33" transform="translate(-109.31 -215.2)"/><rect class="cls-4" x="1202.36" y="201.16" width="32.67" height="36.42"/><rect class="cls-4" x="1202.36" y="237.58" width="32.67" height="36.42"/><rect class="cls-4" x="1202.36" y="274" width="32.67" height="36.42"/><path class="cls-5" d="M1309.5,440.74a6.17,6.17,0,0,1,0-12.33" transform="translate(-109.31 -215.2)"/><path class="cls-5" d="M1309.5,477.16a6.17,6.17,0,0,1,0-12.33" transform="translate(-109.31 -215.2)"/><path class="cls-5" d="M1309.5,513.58a6.17,6.17,0,0,1,0-12.33" transform="translate(-109.31 -215.2)"/><path class="cls-5" d="M1346.25,501.24a6.17,6.17,0,1,1,0,12.33" transform="translate(-109.31 -215.2)"/><path class="cls-5" d="M1346.25,464.83a6.17,6.17,0,1,1,0,12.33" transform="translate(-109.31 -215.2)"/><path class="cls-5" d="M1346.25,428.41a6.17,6.17,0,1,1,0,12.33" transform="translate(-109.31 -215.2)"/><path class="cls-5" d="M1346.25,270.16a6.17,6.17,0,1,1,0,12.33" transform="translate(-109.31 -215.2)"/><rect class="cls-4" x="1202.36" y="323" width="32.67" height="36.42"/><rect class="cls-4" x="1202.36" y="359.41" width="32.67" height="36.42"/><rect class="cls-4" x="1202.36" y="395.83" width="32.67" height="36.42"/><rect class="cls-4" x="1202.36" y="432.25" width="32.67" height="36.42"/><path class="cls-5" d="M1309.5,562.58a6.17,6.17,0,0,1,0-12.33" transform="translate(-109.31 -215.2)"/><path class="cls-5" d="M1309.5,599a6.17,6.17,0,0,1,0-12.33" transform="translate(-109.31 -215.2)"/><path class="cls-5" d="M1309.5,635.41a6.17,6.17,0,0,1,0-12.33" transform="translate(-109.31 -215.2)"/><path class="cls-5" d="M1309.5,671.83a6.17,6.17,0,0,1,0-12.33" transform="translate(-109.31 -215.2)"/><path class="cls-5" d="M1346.25,659.49a6.17,6.17,0,1,1,0,12.33" transform="translate(-109.31 -215.2)"/><path class="cls-5" d="M1346.25,623.08a6.17,6.17,0,1,1,0,12.33" transform="translate(-109.31 -215.2)"/><path class="cls-5" d="M1346.25,586.66a6.17,6.17,0,1,1,0,12.33" transform="translate(-109.31 -215.2)"/><path class="cls-5" d="M1346.25,550.24a6.17,6.17,0,1,1,0,12.33" transform="translate(-109.31 -215.2)"/><rect class="cls-4" x="1424.36" y="42.91" width="32.67" height="36.42"/><rect class="cls-4" x="1424.36" y="79.33" width="32.67" height="36.42"/><rect class="cls-4" x="1424.36" y="115.75" width="32.67" height="36.42"/><rect class="cls-4" x="1424.36" y="152.16" width="32.67" height="36.42"/><path class="cls-5" d="M1531.5,282.49a6.17,6.17,0,0,1,0-12.33" transform="translate(-109.31 -215.2)"/><path class="cls-5" d="M1531.5,318.91a6.17,6.17,0,0,1,0-12.33" transform="translate(-109.31 -215.2)"/><path class="cls-5" d="M1531.5,355.33a6.17,6.17,0,0,1,0-12.33" transform="translate(-109.31 -215.2)"/><path class="cls-5" d="M1531.5,391.74a6.17,6.17,0,0,1,0-12.33" transform="translate(-109.31 -215.2)"/><path class="cls-5" d="M1568.25,379.41a6.17,6.17,0,1,1,0,12.33" transform="translate(-109.31 -215.2)"/><path class="cls-5" d="M1568.25,343a6.17,6.17,0,1,1,0,12.33" transform="translate(-109.31 -215.2)"/><path class="cls-5" d="M1568.25,306.58a6.17,6.17,0,1,1,0,12.33" transform="translate(-109.31 -215.2)"/><rect class="cls-4" x="1424.36" y="201.16" width="32.67" height="36.42"/><rect class="cls-4" x="1424.36" y="237.58" width="32.67" height="36.42"/><rect class="cls-4" x="1424.36" y="274" width="32.67" height="36.42"/><path class="cls-5" d="M1531.5,440.74a6.17,6.17,0,0,1,0-12.33" transform="translate(-109.31 -215.2)"/><path class="cls-5" d="M1531.5,477.16a6.17,6.17,0,0,1,0-12.33" transform="translate(-109.31 -215.2)"/><path class="cls-5" d="M1531.5,513.58a6.17,6.17,0,0,1,0-12.33" transform="translate(-109.31 -215.2)"/><path class="cls-5" d="M1568.25,501.24a6.17,6.17,0,1,1,0,12.33" transform="translate(-109.31 -215.2)"/><path class="cls-5" d="M1568.25,464.83a6.17,6.17,0,1,1,0,12.33" transform="translate(-109.31 -215.2)"/><path class="cls-5" d="M1568.25,428.41a6.17,6.17,0,1,1,0,12.33" transform="translate(-109.31 -215.2)"/><path class="cls-5" d="M1568.25,270.16a6.17,6.17,0,1,1,0,12.33" transform="translate(-109.31 -215.2)"/><rect class="cls-4" x="1424.36" y="323" width="32.67" height="36.42"/><rect class="cls-4" x="1424.36" y="359.41" width="32.67" height="36.42"/><rect class="cls-4" x="1424.36" y="395.83" width="32.67" height="36.42"/><rect class="cls-4" x="1424.36" y="432.25" width="32.67" height="36.42"/><path class="cls-5" d="M1531.5,562.58a6.17,6.17,0,0,1,0-12.33" transform="translate(-109.31 -215.2)"/><path class="cls-5" d="M1531.5,599a6.17,6.17,0,0,1,0-12.33" transform="translate(-109.31 -215.2)"/><path class="cls-5" d="M1531.5,635.41a6.17,6.17,0,0,1,0-12.33" transform="translate(-109.31 -215.2)"/><path class="cls-5" d="M1531.5,671.83a6.17,6.17,0,0,1,0-12.33" transform="translate(-109.31 -215.2)"/><path class="cls-5" d="M1568.25,659.49a6.17,6.17,0,1,1,0,12.33" transform="translate(-109.31 -215.2)"/><path class="cls-5" d="M1568.25,623.08a6.17,6.17,0,1,1,0,12.33" transform="translate(-109.31 -215.2)"/><path class="cls-5" d="M1568.25,586.66a6.17,6.17,0,1,1,0,12.33" transform="translate(-109.31 -215.2)"/><path class="cls-5" d="M1568.25,550.24a6.17,6.17,0,1,1,0,12.33" transform="translate(-109.31 -215.2)"/><rect class="cls-4" x="1202.36" y="503" width="32.67" height="36.42"/><rect class="cls-4" x="1202.36" y="539.41" width="32.67" height="36.42"/><rect class="cls-4" x="1202.36" y="575.83" width="32.67" height="36.42"/><rect class="cls-4" x="1202.36" y="612.25" width="32.67" height="36.42"/><path class="cls-5" d="M1309.5,742.58a6.17,6.17,0,0,1,0-12.33" transform="translate(-109.31 -215.2)"/><path class="cls-5" d="M1309.5,779a6.17,6.17,0,0,1,0-12.33" transform="translate(-109.31 -215.2)"/><path class="cls-5" d="M1309.5,815.41a6.17,6.17,0,0,1,0-12.33" transform="translate(-109.31 -215.2)"/><path class="cls-5" d="M1309.5,851.83a6.17,6.17,0,0,1,0-12.33" transform="translate(-109.31 -215.2)"/><path class="cls-5" d="M1346.25,839.49a6.17,6.17,0,1,1,0,12.33" transform="translate(-109.31 -215.2)"/><path class="cls-5" d="M1346.25,803.08a6.17,6.17,0,1,1,0,12.33" transform="translate(-109.31 -215.2)"/><path class="cls-5" d="M1346.25,766.66a6.17,6.17,0,1,1,0,12.33" transform="translate(-109.31 -215.2)"/><path class="cls-5" d="M1346.25,730.24a6.17,6.17,0,1,1,0,12.33" transform="translate(-109.31 -215.2)"/><rect class="cls-4" x="1282.36" y="503" width="32.67" height="36.42"/><rect class="cls-4" x="1282.36" y="539.41" width="32.67" height="36.42"/><rect class="cls-4" x="1282.36" y="575.83" width="32.67" height="36.42"/><rect class="cls-4" x="1282.36" y="612.25" width="32.67" height="36.42"/><path class="cls-5" d="M1389.5,742.58a6.17,6.17,0,0,1,0-12.33" transform="translate(-109.31 -215.2)"/><path class="cls-5" d="M1389.5,779a6.17,6.17,0,0,1,0-12.33" transform="translate(-109.31 -215.2)"/><path class="cls-5" d="M1389.5,815.41a6.17,6.17,0,0,1,0-12.33" transform="translate(-109.31 -215.2)"/><path class="cls-5" d="M1389.5,851.83a6.17,6.17,0,0,1,0-12.33" transform="translate(-109.31 -215.2)"/><path class="cls-5" d="M1426.25,839.49a6.17,6.17,0,1,1,0,12.33" transform="translate(-109.31 -215.2)"/><path class="cls-5" d="M1426.25,803.08a6.17,6.17,0,1,1,0,12.33" transform="translate(-109.31 -215.2)"/><path class="cls-5" d="M1426.25,766.66a6.17,6.17,0,1,1,0,12.33" transform="translate(-109.31 -215.2)"/><path class="cls-5" d="M1426.25,730.24a6.17,6.17,0,1,1,0,12.33" transform="translate(-109.31 -215.2)"/><rect class="cls-4" x="1012.73" y="503" width="32.67" height="36.42"/><rect class="cls-4" x="1012.73" y="539.41" width="32.67" height="36.42"/><rect class="cls-4" x="1012.73" y="575.83" width="32.67" height="36.42"/><rect class="cls-4" x="1012.73" y="612.25" width="32.67" height="36.42"/><path class="cls-5" d="M1119.87,742.58a6.17,6.17,0,0,1,0-12.33" transform="translate(-109.31 -215.2)"/><path class="cls-5" d="M1119.87,779a6.17,6.17,0,0,1,0-12.33" transform="translate(-109.31 -215.2)"/><path class="cls-5" d="M1119.87,815.41a6.17,6.17,0,0,1,0-12.33" transform="translate(-109.31 -215.2)"/><path class="cls-5" d="M1119.87,851.83a6.17,6.17,0,0,1,0-12.33" transform="translate(-109.31 -215.2)"/><path class="cls-5" d="M1156.62,839.49a6.17,6.17,0,1,1,0,12.33" transform="translate(-109.31 -215.2)"/><path class="cls-5" d="M1156.62,803.08a6.17,6.17,0,1,1,0,12.33" transform="translate(-109.31 -215.2)"/><path class="cls-5" d="M1156.62,766.66a6.17,6.17,0,1,1,0,12.33" transform="translate(-109.31 -215.2)"/><path class="cls-5" d="M1156.62,730.24a6.17,6.17,0,1,1,0,12.33" transform="translate(-109.31 -215.2)"/><rect class="cls-4" x="1092.73" y="503" width="32.67" height="36.42"/><rect class="cls-4" x="1092.73" y="539.41" width="32.67" height="36.42"/><rect class="cls-4" x="1092.73" y="575.83" width="32.67" height="36.42"/><rect class="cls-4" x="1092.73" y="612.25" width="32.67" height="36.42"/><path class="cls-5" d="M1199.87,742.58a6.17,6.17,0,0,1,0-12.33" transform="translate(-109.31 -215.2)"/><path class="cls-5" d="M1199.87,779a6.17,6.17,0,0,1,0-12.33" transform="translate(-109.31 -215.2)"/><path class="cls-5" d="M1199.87,815.41a6.17,6.17,0,0,1,0-12.33" transform="translate(-109.31 -215.2)"/><path class="cls-5" d="M1199.87,851.83a6.17,6.17,0,0,1,0-12.33" transform="translate(-109.31 -215.2)"/><path class="cls-5" d="M1236.62,839.49a6.17,6.17,0,1,1,0,12.33" transform="translate(-109.31 -215.2)"/><path class="cls-5" d="M1236.62,803.08a6.17,6.17,0,1,1,0,12.33" transform="translate(-109.31 -215.2)"/><path class="cls-5" d="M1236.62,766.66a6.17,6.17,0,1,1,0,12.33" transform="translate(-109.31 -215.2)"/><path class="cls-5" d="M1236.62,730.24a6.17,6.17,0,1,1,0,12.33" transform="translate(-109.31 -215.2)"/><polyline class="cls-3" points="1331.69 4.5 1331.69 24.33 1491.94 24.33 1491.94 431.33 1635.44 431.33 1635.44 487.33 1607.94 487.33"/><line class="cls-3" x1="1607.94" y1="568.33" x2="1607.94" y2="648.83"/><line class="cls-3" x1="1607.94" y1="616.83" x2="1590.94" y2="616.83"/><polyline class="cls-3" points="1547.94 616.83 1519.44 616.83 1519.44 650.9"/><polyline class="cls-3" points="1343.69 648.95 1343.69 619.83 1452.69 619.83 1452.69 648.83"/><polyline class="cls-6" points="1607.94 594.21 1635.44 594.21 1635.44 646.79"/><line class="cls-3" x1="1068.94" y1="395.83" x2="1068.94" y2="471.83"/><rect class="cls-7" x="84.27" y="406.59" width="87.8" height="33.74" transform="translate(-404.59 336.43) rotate(-90)"/><path class="cls-8" d="M127,440.5v-1.23a1.66,1.66,0,0,1,.16-0.95A0.91,0.91,0,0,1,128,438a0.9,0.9,0,0,1,.84.35,1.66,1.66,0,0,1,.16.95v1.23h1.4v-2a1.66,1.66,0,0,1,.16-0.94,0.91,0.91,0,0,1,.85-0.35,0.9,0.9,0,0,1,.84.35,1.66,1.66,0,0,1,.16.94v3.12a0.94,0.94,0,0,1-1.12,1.12h-6.25a0.94,0.94,0,0,1-1.12-1.12v-2.89a1.66,1.66,0,0,1,.16-0.95,0.91,0.91,0,0,1,.85-0.35,0.9,0.9,0,0,1,.84.35,1.66,1.66,0,0,1,.16.95v1.73H127Z" transform="translate(-109.31 -215.2)"/><path class="cls-8" d="M124.85,427.18a1.69,1.69,0,0,1-1-1.71c0-.85.29-1.09,0.63-1.09a1.44,1.44,0,0,1,.85.41l2.7,2.06,2.87-2.15a1.65,1.65,0,0,1,.91-0.43c0.39,0,.67.34,0.67,1.18a1.79,1.79,0,0,1-1,1.77l-1.89,1.21,1.92,1.19a1.73,1.73,0,0,1,1,1.71c0,0.85-.29,1.09-0.64,1.09A1.45,1.45,0,0,1,131,432l-2.91-2.19-2.66,2a1.67,1.67,0,0,1-.91.43c-0.39,0-.67-0.34-0.67-1.18a1.79,1.79,0,0,1,1-1.77l1.67-1.05Z" transform="translate(-109.31 -215.2)"/><path class="cls-8" d="M131.19,416.56a1.46,1.46,0,0,1,.95.18,1.62,1.62,0,0,1,0,2,1.46,1.46,0,0,1-.95.18h-6a1.46,1.46,0,0,1-.94-0.18,1.62,1.62,0,0,1,0-2,1.46,1.46,0,0,1,.94-0.18h6Z" transform="translate(-109.31 -215.2)"/><path class="cls-8" d="M131.19,406.57a1.46,1.46,0,0,1,.95.18,1.62,1.62,0,0,1,0,2,1.46,1.46,0,0,1-.95.18H126.1v1.13a1.55,1.55,0,0,1-.17.95,1.33,1.33,0,0,1-1.81,0,1.55,1.55,0,0,1-.17-0.95v-4.65a1.55,1.55,0,0,1,.17-0.95,1.33,1.33,0,0,1,1.81,0,1.55,1.55,0,0,1,.17.95v1.13h5.09Z" transform="translate(-109.31 -215.2)"/><rect class="cls-7" x="1748.35" y="735.72" width="87.8" height="33.74" transform="translate(2435.53 -1254.86) rotate(90)"/><path class="cls-8" d="M1793.42,735.55v1.23a1.66,1.66,0,0,1-.16.95,0.91,0.91,0,0,1-.85.35,0.9,0.9,0,0,1-.84-0.35,1.66,1.66,0,0,1-.16-0.95v-1.23H1790v2a1.66,1.66,0,0,1-.16.94,0.91,0.91,0,0,1-.85.35,0.9,0.9,0,0,1-.84-0.35,1.66,1.66,0,0,1-.16-0.94v-3.12a0.94,0.94,0,0,1,1.12-1.12h6.25a0.94,0.94,0,0,1,1.12,1.12v2.89a1.66,1.66,0,0,1-.16.95,0.91,0.91,0,0,1-.85.35,0.9,0.9,0,0,1-.84-0.35,1.66,1.66,0,0,1-.16-0.95v-1.73h-1.05Z" transform="translate(-109.31 -215.2)"/><path class="cls-8" d="M1795.57,748.87a1.69,1.69,0,0,1,1,1.71c0,0.85-.29,1.09-0.63,1.09a1.44,1.44,0,0,1-.85-0.41l-2.7-2.06-2.87,2.15a1.65,1.65,0,0,1-.91.43c-0.39,0-.67-0.34-0.67-1.18a1.79,1.79,0,0,1,1-1.77l1.89-1.21-1.92-1.19a1.73,1.73,0,0,1-1-1.71c0-.85.29-1.09,0.64-1.09a1.45,1.45,0,0,1,.84.39l2.91,2.19,2.66-2a1.67,1.67,0,0,1,.91-0.43c0.39,0,.67.34,0.67,1.18a1.79,1.79,0,0,1-1,1.77l-1.67,1.05Z" transform="translate(-109.31 -215.2)"/><path class="cls-8" d="M1789.23,759.49a1.46,1.46,0,0,1-.95-0.18,1.62,1.62,0,0,1,0-2,1.46,1.46,0,0,1,.95-0.18h6a1.46,1.46,0,0,1,.94.18,1.62,1.62,0,0,1,0,2,1.46,1.46,0,0,1-.94.18h-6Z" transform="translate(-109.31 -215.2)"/><path class="cls-8" d="M1789.23,769.48a1.46,1.46,0,0,1-.95-0.18,1.62,1.62,0,0,1,0-2,1.46,1.46,0,0,1,.95-0.18h5.09V766a1.55,1.55,0,0,1,.17-0.95,1.33,1.33,0,0,1,1.81,0,1.55,1.55,0,0,1,.17.95v4.65a1.55,1.55,0,0,1-.17.95,1.33,1.33,0,0,1-1.81,0,1.55,1.55,0,0,1-.17-0.95v-1.13h-5.09Z" transform="translate(-109.31 -215.2)"/><line class="cls-1" x1="416.84" y1="575.83" x2="416.84" y2="404.8"/></svg>