<svg id="Layer_1" data-name="Layer 1" xmlns="http://www.w3.org/2000/svg" viewBox="0 0 1701.81 651.33"><defs><style>.cls-1,.cls-8{fill:#fff;}.cls-1,.cls-2,.cls-3,.cls-4,.cls-6,.cls-7{stroke:#ccc;stroke-miterlimit:10;}.cls-1,.cls-2,.cls-3{stroke-width:5px;}.cls-2{fill:#fcf9d6;}.cls-3,.cls-4,.cls-6{fill:none;}.cls-4{stroke-width:5.28px;}.cls-5{fill:#ccc;}.cls-6{stroke-width:5.1px;}.cls-7{fill:#ff362c;stroke-width:4px;}</style></defs><title>isl-paw-map</title><path class="cls-1" d="M1682.94 648.83H20.83L18.87 2.54h1664.07v646.29z"/><path class="cls-2" d="M698.57 5.54v207.63h-123.4V5.54M18.87 2.5h217.57v111.65H18.87z"/><path class="cls-1" d="M19.99 372.83h154.43v37.97h50.46v142.02h-53.94v23.01h278.3V648H20.83l-.84-275.17z"/><path class="cls-2" d="M224.88 410.8H575.17v238.03H449.24v-73h-278.3v-23.01h53.94V410.8zM269.59 408.8V232.72h147.25V407.8M698.94 163.8h72v233h29.49v47h55.51l37-48h176v-59h-68v-61l162-273.29H699.33z"/><path class="cls-3" d="M892.94 395.83v71h40M952.94 395.83v71h40M1012.94 395.83v71h40M1162.94 2.54v334.45h-57.5"/><path class="cls-2" d="M1379.44 421.83h-95.5v-96.67h95.5v96.67z"/><path class="cls-2" d="M1379.44 325.16h-95.5V228.5h95.5v96.66zM857.49 648.54h-95.5v-96.67h95.5v96.67zM1379.44 228.5h-95.5v-96.67h95.5v96.67z"/><path class="cls-4" d="M1202.36 42.91h32.67v36.42h-32.67zM1202.36 79.33h32.67v36.42h-32.67zM1202.36 115.75h32.67v36.42h-32.67z"/><path class="cls-4" d="M1202.36 152.16h32.67v36.42h-32.67z"/><path class="cls-5" d="M1200.19 67.29a6.17 6.17 0 0 1 0-12.33M1200.19 103.71a6.17 6.17 0 0 1 0-12.33M1200.19 140.13a6.17 6.17 0 0 1 0-12.33M1200.19 176.54a6.17 6.17 0 0 1 0-12.33M1236.94 164.21a6.17 6.17 0 1 1 0 12.33M1236.94 127.8a6.17 6.17 0 1 1 0 12.33M1236.94 91.38a6.17 6.17 0 1 1 0 12.33"/><path class="cls-4" d="M1202.36 201.16h32.67v36.42h-32.67zM1202.36 237.58h32.67V274h-32.67zM1202.36 274h32.67v36.42h-32.67z"/><path class="cls-5" d="M1200.19 225.54a6.17 6.17 0 0 1 0-12.33M1200.19 261.96a6.17 6.17 0 0 1 0-12.33M1200.19 298.38a6.17 6.17 0 0 1 0-12.33M1236.94 286.04a6.17 6.17 0 1 1 0 12.33M1236.94 249.63a6.17 6.17 0 1 1 0 12.33M1236.94 213.21a6.17 6.17 0 1 1 0 12.33M1236.94 54.96a6.17 6.17 0 1 1 0 12.33"/><path class="cls-4" d="M1202.36 323h32.67v36.42h-32.67z"/><path class="cls-4" d="M1202.36 359.41h32.67v36.42h-32.67z"/><path class="cls-4" d="M1202.36 395.83h32.67v36.42h-32.67zM1202.36 432.25h32.67v36.42h-32.67z"/><path class="cls-5" d="M1200.19 347.38a6.17 6.17 0 0 1 0-12.33M1200.19 383.8a6.17 6.17 0 0 1 0-12.33M1200.19 420.21a6.17 6.17 0 0 1 0-12.33M1200.19 456.63a6.17 6.17 0 0 1 0-12.33M1236.94 444.29a6.17 6.17 0 1 1 0 12.33M1236.94 407.88a6.17 6.17 0 1 1 0 12.33M1236.94 371.46a6.17 6.17 0 1 1 0 12.33M1236.94 335.04a6.17 6.17 0 1 1 0 12.33"/><path class="cls-4" d="M1424.36 42.91h32.67v36.42h-32.67zM1424.36 79.33h32.67v36.42h-32.67zM1424.36 115.75h32.67v36.42h-32.67z"/><path class="cls-4" d="M1424.36 152.16h32.67v36.42h-32.67z"/><path class="cls-5" d="M1422.19 67.29a6.17 6.17 0 0 1 0-12.33M1422.19 103.71a6.17 6.17 0 0 1 0-12.33M1422.19 140.13a6.17 6.17 0 0 1 0-12.33M1422.19 176.54a6.17 6.17 0 0 1 0-12.33M1458.94 164.21a6.17 6.17 0 1 1 0 12.33M1458.94 127.8a6.17 6.17 0 1 1 0 12.33M1458.94 91.38a6.17 6.17 0 1 1 0 12.33"/><path class="cls-4" d="M1424.36 201.16h32.67v36.42h-32.67zM1424.36 237.58h32.67V274h-32.67zM1424.36 274h32.67v36.42h-32.67z"/><path class="cls-5" d="M1422.19 225.54a6.17 6.17 0 0 1 0-12.33M1422.19 261.96a6.17 6.17 0 0 1 0-12.33M1422.19 298.38a6.17 6.17 0 0 1 0-12.33M1458.94 286.04a6.17 6.17 0 1 1 0 12.33M1458.94 249.63a6.17 6.17 0 1 1 0 12.33M1458.94 213.21a6.17 6.17 0 1 1 0 12.33M1458.94 54.96a6.17 6.17 0 1 1 0 12.33"/><path class="cls-4" d="M1424.36 323h32.67v36.42h-32.67z"/><path class="cls-4" d="M1424.36 359.41h32.67v36.42h-32.67z"/><path class="cls-4" d="M1424.36 395.83h32.67v36.42h-32.67zM1424.36 432.25h32.67v36.42h-32.67z"/><path class="cls-5" d="M1422.19 347.38a6.17 6.17 0 0 1 0-12.33M1422.19 383.8a6.17 6.17 0 0 1 0-12.33M1422.19 420.21a6.17 6.17 0 0 1 0-12.33M1422.19 456.63a6.17 6.17 0 0 1 0-12.33M1458.94 444.29a6.17 6.17 0 1 1 0 12.33M1458.94 407.88a6.17 6.17 0 1 1 0 12.33M1458.94 371.46a6.17 6.17 0 1 1 0 12.33M1458.94 335.04a6.17 6.17 0 1 1 0 12.33"/><path class="cls-4" d="M1202.36 503h32.67v36.42h-32.67z"/><path class="cls-4" d="M1202.36 539.41h32.67v36.42h-32.67zM1202.36 575.83h32.67v36.42h-32.67zM1202.36 612.25h32.67v36.42h-32.67z"/><path class="cls-5" d="M1200.19 527.38a6.17 6.17 0 0 1 0-12.33M1200.19 563.8a6.17 6.17 0 0 1 0-12.33M1200.19 600.21a6.17 6.17 0 0 1 0-12.33M1200.19 636.63a6.17 6.17 0 0 1 0-12.33M1236.94 624.29a6.17 6.17 0 1 1 0 12.33M1236.94 587.88a6.17 6.17 0 1 1 0 12.33M1236.94 551.46a6.17 6.17 0 1 1 0 12.33M1236.94 515.04a6.17 6.17 0 1 1 0 12.33"/><path class="cls-4" d="M1282.36 503h32.67v36.42h-32.67z"/><path class="cls-4" d="M1282.36 539.41h32.67v36.42h-32.67zM1282.36 575.83h32.67v36.42h-32.67zM1282.36 612.25h32.67v36.42h-32.67z"/><path class="cls-5" d="M1280.19 527.38a6.17 6.17 0 0 1 0-12.33M1280.19 563.8a6.17 6.17 0 0 1 0-12.33M1280.19 600.21a6.17 6.17 0 0 1 0-12.33M1280.19 636.63a6.17 6.17 0 0 1 0-12.33M1316.94 624.29a6.17 6.17 0 1 1 0 12.33M1316.94 587.88a6.17 6.17 0 1 1 0 12.33M1316.94 551.46a6.17 6.17 0 1 1 0 12.33M1316.94 515.04a6.17 6.17 0 1 1 0 12.33"/><path class="cls-4" d="M1012.73 503h32.67v36.42h-32.67z"/><path class="cls-4" d="M1012.73 539.41h32.67v36.42h-32.67zM1012.73 575.83h32.67v36.42h-32.67zM1012.73 612.25h32.67v36.42h-32.67z"/><path class="cls-5" d="M1010.56 527.38a6.17 6.17 0 0 1 0-12.33M1010.56 563.8a6.17 6.17 0 0 1 0-12.33M1010.56 600.21a6.17 6.17 0 0 1 0-12.33M1010.56 636.63a6.17 6.17 0 0 1 0-12.33M1047.31 624.29a6.17 6.17 0 1 1 0 12.33M1047.31 587.88a6.17 6.17 0 1 1 0 12.33M1047.31 551.46a6.17 6.17 0 1 1 0 12.33M1047.31 515.04a6.17 6.17 0 1 1 0 12.33"/><path class="cls-4" d="M1092.73 503h32.67v36.42h-32.67z"/><path class="cls-4" d="M1092.73 539.41h32.67v36.42h-32.67zM1092.73 575.83h32.67v36.42h-32.67zM1092.73 612.25h32.67v36.42h-32.67z"/><path class="cls-5" d="M1090.56 527.38a6.17 6.17 0 0 1 0-12.33M1090.56 563.8a6.17 6.17 0 0 1 0-12.33M1090.56 600.21a6.17 6.17 0 0 1 0-12.33M1090.56 636.63a6.17 6.17 0 0 1 0-12.33M1127.31 624.29a6.17 6.17 0 1 1 0 12.33M1127.31 587.88a6.17 6.17 0 1 1 0 12.33M1127.31 551.46a6.17 6.17 0 1 1 0 12.33M1127.31 515.04a6.17 6.17 0 1 1 0 12.33"/><path class="cls-3" d="M1331.69 4.5v19.83h160.25v407h143.5v56h-27.5M1607.94 568.33v80.5M1607.94 616.83h-17M1547.94 616.83h-28.5v34.07M1343.69 648.95v-29.12h109v29"/><path class="cls-6" d="M1607.94 594.21h27.5v52.58"/><path class="cls-3" d="M1068.94 395.83v76"/><path class="cls-7" d="M2 252.16v-87.8h33.74v87.8z"/><path class="cls-8" d="M17.69 225.3v-1.23a1.66 1.66 0 0 1 .16-.95.91.91 0 0 1 .84-.32.9.9 0 0 1 .84.35 1.66 1.66 0 0 1 .16.95v1.23h1.4v-2a1.66 1.66 0 0 1 .16-.94.91.91 0 0 1 .85-.35.9.9 0 0 1 .84.35 1.66 1.66 0 0 1 .16.94v3.12a.94.94 0 0 1-1.12 1.12h-6.25a.94.94 0 0 1-1.12-1.12v-2.89a1.66 1.66 0 0 1 .16-.95.91.91 0 0 1 .85-.35.9.9 0 0 1 .84.35 1.66 1.66 0 0 1 .16.95v1.73h1.07zM15.54 211.98a1.69 1.69 0 0 1-1-1.71c0-.85.29-1.09.63-1.09a1.44 1.44 0 0 1 .85.41l2.7 2.06 2.87-2.15a1.65 1.65 0 0 1 .91-.43c.39 0 .67.34.67 1.18a1.79 1.79 0 0 1-1 1.77l-1.89 1.21 1.92 1.19a1.73 1.73 0 0 1 1 1.71c0 .85-.29 1.09-.64 1.09a1.45 1.45 0 0 1-.87-.42l-2.91-2.19-2.66 2a1.67 1.67 0 0 1-.91.43c-.39 0-.67-.34-.67-1.18a1.79 1.79 0 0 1 1-1.77l1.67-1.05zM21.88 201.36a1.46 1.46 0 0 1 .95.18 1.62 1.62 0 0 1 0 2 1.46 1.46 0 0 1-.95.18h-6a1.46 1.46 0 0 1-.94-.18 1.62 1.62 0 0 1 0-2 1.46 1.46 0 0 1 .94-.18h6zM21.88 191.37a1.46 1.46 0 0 1 .95.18 1.62 1.62 0 0 1 0 2 1.46 1.46 0 0 1-.95.18h-5.09v1.13a1.55 1.55 0 0 1-.17.95 1.33 1.33 0 0 1-1.81 0 1.55 1.55 0 0 1-.17-.95v-4.65a1.55 1.55 0 0 1 .17-.95 1.33 1.33 0 0 1 1.81 0 1.55 1.55 0 0 1 .17.95v1.13h5.09z"/><path class="cls-7" d="M789.91 413.9h87.8v33.74h-87.8z"/><path class="cls-8" d="M816.76 429.61h1.23a1.66 1.66 0 0 1 .95.16.91.91 0 0 1 .35.85.9.9 0 0 1-.35.84 1.66 1.66 0 0 1-.95.16h-1.23v1.4h2a1.66 1.66 0 0 1 .94.16.91.91 0 0 1 .35.85.9.9 0 0 1-.35.84 1.66 1.66 0 0 1-.94.16h-3.12a.94.94 0 0 1-1.12-1.12v-6.25a.94.94 0 0 1 1.12-1.12h2.89a1.66 1.66 0 0 1 .95.16.91.91 0 0 1 .35.85.9.9 0 0 1-.35.84 1.66 1.66 0 0 1-.95.16h-1.73v1.05zM830.09 427.45a1.69 1.69 0 0 1 1.71-1c.85 0 1.09.29 1.09.63a1.44 1.44 0 0 1-.41.85l-2.06 2.7 2.15 2.87a1.65 1.65 0 0 1 .43.91c0 .39-.34.67-1.18.67a1.79 1.79 0 0 1-1.77-1l-1.21-1.89-1.15 1.91a1.73 1.73 0 0 1-1.71 1c-.85 0-1.09-.29-1.09-.64a1.45 1.45 0 0 1 .39-.84l2.19-2.91-2-2.66a1.67 1.67 0 0 1-.43-.91c0-.39.34-.67 1.18-.67a1.79 1.79 0 0 1 1.77 1l1.05 1.67zM840.69 433.8a1.46 1.46 0 0 1-.18.95 1.62 1.62 0 0 1-2 0 1.46 1.46 0 0 1-.18-.95v-6a1.46 1.46 0 0 1 .18-.94 1.62 1.62 0 0 1 2 0 1.46 1.46 0 0 1 .18.94v6zM850.69 433.8a1.46 1.46 0 0 1-.18.95 1.62 1.62 0 0 1-2 0 1.46 1.46 0 0 1-.18-.95v-5.1h-1.13a1.55 1.55 0 0 1-.95-.17 1.33 1.33 0 0 1 0-1.81 1.55 1.55 0 0 1 .95-.17h4.65a1.55 1.55 0 0 1 .95.17 1.33 1.33 0 0 1 0 1.81 1.55 1.55 0 0 1-.95.17h-1.16v5.1z"/><path class="cls-7" d="M1699.81 493.49v87.8h-33.74v-87.8z"/><path class="cls-8" d="M1684.11 520.35v1.23a1.66 1.66 0 0 1-.16.95.91.91 0 0 1-.85.35.9.9 0 0 1-.84-.35 1.66 1.66 0 0 1-.16-.95v-1.23h-1.41v2a1.66 1.66 0 0 1-.16.94.91.91 0 0 1-.85.35.9.9 0 0 1-.84-.35 1.66 1.66 0 0 1-.16-.94v-3.12a.94.94 0 0 1 1.12-1.12h6.25a.94.94 0 0 1 1.12 1.12v2.89a1.66 1.66 0 0 1-.16.95.91.91 0 0 1-.85.35.9.9 0 0 1-.84-.35 1.66 1.66 0 0 1-.16-.95v-1.73h-1.05zM1686.26 533.67a1.69 1.69 0 0 1 1 1.71c0 .85-.29 1.09-.63 1.09a1.44 1.44 0 0 1-.85-.41l-2.7-2.06-2.87 2.15a1.65 1.65 0 0 1-.91.43c-.39 0-.67-.34-.67-1.18a1.79 1.79 0 0 1 1-1.77l1.89-1.21-1.92-1.19a1.73 1.73 0 0 1-1-1.71c0-.85.29-1.09.64-1.09a1.45 1.45 0 0 1 .84.39l2.91 2.19 2.66-2a1.67 1.67 0 0 1 .91-.43c.39 0 .67.34.67 1.18a1.79 1.79 0 0 1-1 1.77l-1.67 1.05zM1679.92 544.29a1.46 1.46 0 0 1-.95-.18 1.62 1.62 0 0 1 0-2 1.46 1.46 0 0 1 .95-.18h6a1.46 1.46 0 0 1 .94.18 1.62 1.62 0 0 1 0 2 1.46 1.46 0 0 1-.94.18h-6zM1679.92 554.28a1.46 1.46 0 0 1-.95-.18 1.62 1.62 0 0 1 0-2 1.46 1.46 0 0 1 .95-.18h5.09v-1.12a1.55 1.55 0 0 1 .17-.95 1.33 1.33 0 0 1 1.81 0 1.55 1.55 0 0 1 .17.95v4.65a1.55 1.55 0 0 1-.17.95 1.33 1.33 0 0 1-1.81 0 1.55 1.55 0 0 1-.17-.95v-1.13h-5.09z"/><path class="cls-1" d="M416.84 575.83V404.8"/></svg>