<svg xmlns="http://www.w3.org/2000/svg" viewBox="0 0 396.2 164.5"><defs><style>.a{fill:#007cff;}</style></defs><title>paw_logo</title><path class="a" d="M53.6,4.4A53.55,53.55,0,0,0,8.5,29V8.6A4.23,4.23,0,0,0,4.3,4.4,4.31,4.31,0,0,0,0,8.6V160.4a4.23,4.23,0,0,0,4.2,4.2,4.23,4.23,0,0,0,4.2-4.2V86.8A53.56,53.56,0,1,0,53.6,4.4Zm0,98.6A45.1,45.1,0,1,1,98.7,57.9,45.11,45.11,0,0,1,53.6,103Z" transform="translate(0 -0.1)"/><path class="a" d="M221,4.4a4.23,4.23,0,0,0-4.2,4.2V29a53.6,53.6,0,1,0,0,57.8v20.5a4.2,4.2,0,0,0,8.4,0V8.6A4.1,4.1,0,0,0,221,4.4ZM171.7,103a45.1,45.1,0,1,1,45.1-45.1A45.11,45.11,0,0,1,171.7,103Z" transform="translate(0 -0.1)"/><path class="a" d="M393.2,4.4a4.5,4.5,0,0,0-5.7,2.7L354.3,101,326.9,7.3c0-.1-0.1-0.2-0.1-0.3a10.7,10.7,0,0,0-20,0c0,0.1-.1.2-0.1,0.3L279.2,101,246,7.1a4.46,4.46,0,1,0-8.4,3l34,96v0.1a8.13,8.13,0,0,0,7.7,5.3,8.33,8.33,0,0,0,7.7-5.3c0-.1.1-0.2,0.1-0.3l28-95.9a1.81,1.81,0,0,1,1.7-1.1,1.66,1.66,0,0,1,1.7,1.1l28,95.9c0,0.1.1,0.2,0.1,0.3a8.13,8.13,0,0,0,7.7,5.3,8.33,8.33,0,0,0,7.7-5.3v-0.1l34-96A4.64,4.64,0,0,0,393.2,4.4Z" transform="translate(0 -0.1)"/></svg>