<?xml-stylesheet href="../css/app.css" type="text/css"?>
<svg xmlns="http://www.w3.org/2000/svg" viewBox="0 0 1031.43 581.28">
  <defs>
    <style>
      .a {
        fill: #fff;
      }

      .b {
        fill: #ffdf00;
      }

      .c {
        fill: #5d5d5d;
      }

      .d {
        fill: #ffeb5a;
      }

      .e {
        fill: #007cff;
      }

      .f {
        fill: #e7ecef;
      }

      .g {
        fill: #6cb9ff;
      }

      .h {
        fill: #f9f9f9;
      }

      .i {
        fill: #ffaf57;
      }

      .j {
        fill: #9857ff;
      }

      .k {
        fill: #fcfcfc;
      }

      .l {
        fill: #ff6356;
      }

      .m {
        fill: #fe6155;
      }

      .n {
        fill: #3195ff;
      }
    </style>
  </defs>
  <title>workspace2</title>
  <polygon class="a" points="846.75 533.25 981.75 532.75 993.75 522.5 993.89 378.29 838.47 378.29 838.47 525.25 846.75 533.25"/>
  <g>
    <circle class="b" cx="915.18" cy="424.03" r="6.9"/>
    <path class="c" d="M915.18,417.13a6.9,6.9,0,1,1-6.9,6.9,6.9,6.9,0,0,1,6.9-6.9m0-5a11.9,11.9,0,1,0,11.9,11.9,11.91,11.91,0,0,0-11.9-11.9h0Z"/>
  </g>
  <g>
    <circle class="d" cx="915.18" cy="493.05" r="6.9"/>
    <path class="c" d="M915.18,486.15a6.9,6.9,0,1,1-6.9,6.9,6.9,6.9,0,0,1,6.9-6.9m0-5a11.9,11.9,0,1,0,11.9,11.9,11.91,11.91,0,0,0-11.9-11.9h0Z"/>
  </g>
  <g>
    <path class="a" d="M851.46,363.95h318a6,6,0,0,1,6,6v0a6,6,0,0,1-6,6h-318a0,0,0,0,1,0,0v-12a0,0,0,0,1,0,0Z" transform="translate(1383.4 -643.5) rotate(90)"/>
    <path class="c" d="M1013.45,534.44a8.51,8.51,0,0,1-8.5-8.5V205.46h17V525.94A8.51,8.51,0,0,1,1013.45,534.44Zm-3.5-324V525.94a3.5,3.5,0,0,0,7,0V210.46h-7Z"/>
  </g>
  <g>
    <path class="a" d="M215,363.95H533a6,6,0,0,1,6,6v0a6,6,0,0,1-6,6H215a0,0,0,0,1,0,0v-12a0,0,0,0,1,0,0Z" transform="translate(746.91 -7.02) rotate(90)"/>
    <path class="c" d="M377,534.44a8.51,8.51,0,0,1-8.5-8.5V205.46h17V525.94A8.51,8.51,0,0,1,377,534.44Zm-3.5-324V525.94a3.5,3.5,0,0,0,7,0V210.46h-7Z"/>
  </g>
  <g>
    <rect class="e" x="360.97" y="207.44" width="667.97" height="12" rx="6" ry="6"/>
    <path class="c" d="M1022.93,221.94H367a8.5,8.5,0,1,1,0-17h656A8.5,8.5,0,1,1,1022.93,221.94Zm-656-12a3.5,3.5,0,1,0,0,7h656a3.5,3.5,0,1,0,0-7H367Z"/>
  </g>
  <path class="c" d="M980.45,534.44H849.91A15,15,0,0,1,835,519.5V368.79H995.39V519.5A15,15,0,0,1,980.45,534.44ZM840,373.79V519.5a10,10,0,0,0,9.94,9.94H980.45a10,10,0,0,0,9.94-9.94V373.79H840Z"/>
  <g>
    <g>
      <path class="a" d="M736.71,365.25H724.07a6.77,6.77,0,0,1,0-13.53h12.46c1.24-2.44,1-11,.79-15.69-0.09-2.57-.18-5.23-0.18-7.84V272.7a6.77,6.77,0,1,1,13.53,0v55.49c0,2.39.09,4.93,0.17,7.39,0.35,10.4.68,20.21-4.76,25.84A12.72,12.72,0,0,1,736.71,365.25Z"/>
      <path class="c" d="M736.71,367.75H724.08a9.27,9.27,0,1,1,0-18.53h10.59c0.5-3.29.26-10.46,0.17-13.09-0.08-2.47-.18-5.25-0.18-7.93V272.7a9.27,9.27,0,1,1,18.53,0v55.49c0,2.37.08,4.88,0.17,7.3,0.37,10.94.71,21.27-5.47,27.67A15.17,15.17,0,0,1,736.71,367.75Zm-12.63-13.53a4.27,4.27,0,1,0,0,8.53h12.63a10.28,10.28,0,0,0,7.59-3.07c4.71-4.87,4.39-14.17,4.06-24-0.08-2.36-.17-5-0.17-7.47V272.7a4.27,4.27,0,1,0-8.53,0v55.49c0,2.6.09,5.34,0.17,7.75,0.29,8.8.21,14.38-1.06,16.9l-0.69,1.37h-14Z"/>
    </g>
    <g>
      <path class="a" d="M494,365.25H481.37a12.72,12.72,0,0,1-9.39-3.83c-5.44-5.63-5.11-15.45-4.76-25.84,0.08-2.46.17-5,.17-7.39V272.7a6.77,6.77,0,1,1,13.53,0v55.49c0,2.61-.09,5.27-0.18,7.84-0.16,4.7-.44,13.24.79,15.69H494A6.77,6.77,0,1,1,494,365.25Z"/>
      <path class="c" d="M494,367.75H481.37a15.17,15.17,0,0,1-11.18-4.59c-6.18-6.39-5.83-16.72-5.47-27.66,0.08-2.45.17-5,.17-7.31V272.7a9.27,9.27,0,1,1,18.53,0v55.49c0,2.68-.09,5.47-0.18,7.92-0.09,2.64-.33,9.81.17,13.1H494A9.27,9.27,0,1,1,494,367.75Zm-19.85-99.31a4.27,4.27,0,0,0-4.27,4.27v55.49c0,2.42-.09,5-0.17,7.46-0.33,9.86-.64,19.16,4.06,24a10.28,10.28,0,0,0,7.59,3.07H494a4.27,4.27,0,1,0,0-8.53H480l-0.69-1.37c-1.28-2.52-1.36-8.1-1.06-16.89,0.08-2.43.17-5.17,0.17-7.77V272.7A4.27,4.27,0,0,0,474.15,268.43Z"/>
    </g>
    <g>
      <path class="a" d="M614.45,449.41V386.88H603.63v62.53C516.71,452.15,466,520.14,466,520.14h14.89s38.93-57.94,122.71-60.36v92.84h10.83V459.78c83.83,2.42,124.06,60.36,124.06,60.36H753.4S701.42,452.15,614.45,449.41Z"/>
      <path class="c" d="M617,555.12H601.13V462.37c-41.19,1.78-70.86,17.43-88.62,30.39-19.68,14.37-29.42,28.64-29.51,28.78l-0.74,1.1h-21.2l3-4c0.53-.71,13.16-17.49,36.72-34.85C522.13,468,556.75,449,601.13,447V384.38H617V447c44.41,2,79.39,21,101.06,36.78,23.89,17.35,36.84,34.13,37.38,34.84l3.07,4H737.21l-0.75-1.07c-0.1-.14-10.16-14.42-30.17-28.8-18.05-13-48.08-28.62-89.33-30.4v92.75Zm-10.83-5H612V457.2l2.57,0.07c43.94,1.27,75.83,17.86,94.85,31.56,17.68,12.73,27.64,25.13,30.4,28.8H748a204.91,204.91,0,0,0-33.12-29.91c-21.47-15.57-56.34-34.42-100.56-35.82l-2.42-.08V389.38h-5.83v62.45l-2.42.08c-44.18,1.4-78.69,20.24-99.85,35.81a199,199,0,0,0-32.55,29.92h8.32c2.71-3.72,12.39-16.08,29.75-28.79,18.72-13.7,50.25-30.3,94.17-31.57l2.57-.07v92.92Z"/>
    </g>
    <g>
      <circle class="d" cx="476.51" cy="528.26" r="19.85"/>
      <path class="c" d="M476.51,550.61a22.35,22.35,0,1,1,22.35-22.35A22.37,22.37,0,0,1,476.51,550.61Zm0-39.7a17.35,17.35,0,1,0,17.35,17.35A17.37,17.37,0,0,0,476.51,510.91Z"/>
    </g>
    <g>
      <circle class="d" cx="743.92" cy="528.26" r="19.85"/>
      <path class="c" d="M743.92,550.61a22.35,22.35,0,1,1,22.35-22.35A22.37,22.37,0,0,1,743.92,550.61Zm0-39.7a17.35,17.35,0,1,0,17.35,17.35A17.37,17.37,0,0,0,743.92,510.91Z"/>
    </g>
    <g>
      <rect class="a" x="494" y="330.13" width="230.07" height="56.71" rx="28.35" ry="28.35"/>
      <path class="c" d="M695.72,389.33H522.36a30.85,30.85,0,1,1,0-61.71H695.72A30.85,30.85,0,1,1,695.72,389.33ZM522.36,332.63a25.85,25.85,0,1,0,0,51.71H695.72a25.85,25.85,0,1,0,0-51.71H522.36Z"/>
    </g>
    <g>
      <path class="a" d="M697,330.13H521.07L500.31,156.79A47.07,47.07,0,0,1,547,104.13H671a47.07,47.07,0,0,1,46.74,52.67Z"/>
      <path class="c" d="M699.23,332.63H518.85l-21-175.54A49.57,49.57,0,0,1,547,101.63H671a49.57,49.57,0,0,1,49.22,55.46Zm-175.94-5h171.5l20.5-171.13A44.57,44.57,0,0,0,671,106.63H547a44.57,44.57,0,0,0-44.25,49.87Z"/>
    </g>
    <g>
      <circle class="d" cx="609.04" cy="558.94" r="19.85"/>
      <path class="c" d="M609,581.28a22.35,22.35,0,1,1,22.35-22.35A22.37,22.37,0,0,1,609,581.28Zm0-39.7a17.35,17.35,0,1,0,17.35,17.35A17.37,17.37,0,0,0,609,541.59Z"/>
    </g>
    <g>
      <rect class="e" x="456.66" y="265.03" width="35.08" height="15.34" rx="7.67" ry="7.67"/>
      <path class="c" d="M484.08,282.87H464.33a10.17,10.17,0,0,1,0-20.34h19.75A10.17,10.17,0,0,1,484.08,282.87Zm-19.75-15.34a5.17,5.17,0,0,0,0,10.34h19.75a5.17,5.17,0,0,0,0-10.34H464.33Z"/>
    </g>
    <g>
      <rect class="e" x="726.38" y="265.03" width="35.08" height="15.34" rx="7.67" ry="7.67"/>
      <path class="c" d="M753.8,282.87H734.05a10.17,10.17,0,0,1,0-20.34H753.8A10.17,10.17,0,0,1,753.8,282.87Zm-19.75-15.34a5.17,5.17,0,0,0,0,10.34H753.8a5.17,5.17,0,0,0,0-10.34H734.05Z"/>
    </g>
  </g>
  <g>
    <rect class="e" x="837.47" y="371.29" width="155.42" height="11"/>
    <path class="c" d="M995.39,384.79H835v-16H995.39v16Zm-155.42-5H990.39v-6H840v6Z"/>
  </g>
  <g>
    <rect class="a" x="863.35" y="172.29" width="27.57" height="35"/>
    <path class="c" d="M893.41,209.79H860.85v-40h32.57v40Zm-27.57-5h22.57v-30H865.85v30Z"/>
  </g>
  <path class="c" d="M985.39,453.55H845V392.29H985.39v61.26Zm-135.42-5H980.39V397.29H850v51.26Z"/>
  <path class="c" d="M985.39,522.29H845V461H985.39v61.26Zm-135.42-5H980.39V466H850v51.26Z"/>
  <g>
    <rect class="a" x="743.75" y="2.5" width="266.77" height="170.61" rx="14.44" ry="14.44"/>
    <path class="c" d="M996.08,175.62H758.18a17,17,0,0,1-16.94-16.94V16.94A17,17,0,0,1,758.18,0H996.08A17,17,0,0,1,1013,16.94V158.68A17,17,0,0,1,996.08,175.62ZM758.18,5a12,12,0,0,0-11.94,11.94V158.68a12,12,0,0,0,11.94,11.94H996.08A12,12,0,0,0,1008,158.68V16.94A12,12,0,0,0,996.08,5H758.18Z"/>
  </g>
  <g>
    <rect class="e" x="757.9" y="14.74" width="238.81" height="146.13" rx="4.07" ry="4.07"/>
    <path class="c" d="M992.64,163.21H762a6.41,6.41,0,0,1-6.41-6.41v-138A6.41,6.41,0,0,1,762,12.41H992.64A6.41,6.41,0,0,1,999,18.82v138A6.41,6.41,0,0,1,992.64,163.21ZM762,17.07a1.74,1.74,0,0,0-1.74,1.74v138a1.74,1.74,0,0,0,1.74,1.74H992.64a1.74,1.74,0,0,0,1.74-1.74v-138a1.74,1.74,0,0,0-1.74-1.74H762Z"/>
  </g>
  <g>
    <rect class="f" x="784.59" y="147.48" width="188.73" height="13.39"/>
    <path class="c" d="M974.82,162.37H783.09V146H974.82v16.39Zm-188.73-3H971.82V149H786.09v10.39Z"/>
  </g>
  <g>
    <g>
      <rect class="g" x="789.53" y="140.48" width="12.32" height="12.32"/>
      <path class="c" d="M802.62,153.57H788.76V139.71h13.86v13.86ZM790.3,152h10.78V141.25H790.3V152Z"/>
    </g>
    <g>
      <path class="h" d="M801.13,141.35H796.7a0.73,0.73,0,0,0-.65.4c-0.24.48-.79,1.53-2.1,3.79a0.73,0.73,0,0,0,.63,1.1h1.35a0.73,0.73,0,0,1,.68,1l-1.27,3.43a0.73,0.73,0,0,0,.68,1h5.1"/>
      <path class="c" d="M801.13,152.42H796a1.11,1.11,0,0,1-1-1.5l1.27-3.43a0.34,0.34,0,0,0-.32-0.46h-1.35a1.12,1.12,0,0,1-1-1.67c1.3-2.26,1.85-3.3,2.08-3.77a1.12,1.12,0,0,1,1-.62h4.43v0.77H796.7a0.35,0.35,0,0,0-.31.19c-0.24.48-.79,1.54-2.11,3.82a0.34,0.34,0,0,0,0,.35,0.34,0.34,0,0,0,.3.17h1.35a1.11,1.11,0,0,1,1,1.5l-1.27,3.43a0.34,0.34,0,0,0,.32.46h5.1v0.77Z"/>
    </g>
  </g>
  <g>
    <rect class="g" x="886.66" y="140.48" width="12.32" height="12.32"/>
    <path class="c" d="M899.76,153.57H885.89V139.71h13.87v13.86ZM887.43,152h10.78V141.25H887.43V152Z"/>
  </g>
  <g>
    <rect class="i" x="905.62" y="140.48" width="12.32" height="12.32"/>
    <path class="c" d="M918.72,153.57H904.85V139.71h13.86v13.86ZM906.4,152h10.78V141.25H906.4V152Z"/>
  </g>
  <g>
    <rect class="j" x="923.82" y="140.48" width="12.32" height="12.32"/>
    <path class="c" d="M936.91,153.57H923V139.71h13.86v13.86ZM924.59,152h10.78V141.25H924.59V152Z"/>
  </g>
  <g>
    <g>
      <rect class="k" x="847.2" y="140.48" width="12.32" height="12.32"/>
      <path class="c" d="M860.3,153.57H846.43V139.71H860.3v13.86ZM848,152h10.78V141.25H848V152Z"/>
    </g>
    <rect class="l" x="847.89" y="141.18" width="10.92" height="3.18"/>
    <g>
      <line class="a" x1="847.26" y1="144.52" x2="859.43" y2="144.52"/>
      <rect class="c" x="847.26" y="144.1" width="12.16" height="0.84"/>
    </g>
  </g>
  <g>
    <g>
      <rect class="k" x="865.18" y="140.48" width="15.83" height="12.32"/>
      <path class="c" d="M881.78,153.57H864.41V139.71h17.37v13.86ZM866,152h14.29V141.25H866V152Z"/>
    </g>
    <path class="c" d="M873.09,147.16a2.92,2.92,0,0,1-1.8-.62l-6.39-5.75,0.56-.63,6.37,5.73a2.08,2.08,0,0,0,2.55,0l6.35-5.71,0.56,0.63-6.37,5.73A3,3,0,0,1,873.09,147.16Z"/>
  </g>
  <g>
    <g>
      <path class="k" d="M966.2,153.13h-5.57a2,2,0,0,1-2-1.78l-0.89-9h11.29l-0.89,9A2,2,0,0,1,966.2,153.13Z"/>
      <path class="c" d="M966.2,153.9h-5.57a2.74,2.74,0,0,1-2.73-2.48l-1-9.89h13l-1,9.89A2.74,2.74,0,0,1,966.2,153.9Zm-7.58-10.83,0.81,8.2a1.2,1.2,0,0,0,1.2,1.09h5.57a1.2,1.2,0,0,0,1.2-1.09l0.81-8.2h-9.59Z"/>
    </g>
    <g>
      <ellipse class="k" cx="963.4" cy="142.12" rx="5.63" ry="1.86"/>
      <path class="c" d="M963.4,144.75c-3.19,0-6.4-.81-6.4-2.63s3.22-2.63,6.4-2.63,6.4,0.81,6.4,2.63S966.59,144.75,963.4,144.75Zm0-3.73c-3.08,0-4.73.81-4.87,1.13,0.14,0.24,1.79,1.05,4.87,1.05s4.6-.75,4.85-1.09C968,141.77,966.36,141,963.4,141Z"/>
    </g>
  </g>
  <g>
    <g>
      <path class="a animated bounce" d="M832.09,140.48c-5,0-9.13,2.94-9.13,6.57,0,2.33,1.69,4.37,4.23,5.54a0.59,0.59,0,0,1,.12,1l0,0a0.59,0.59,0,0,0,.35,1.07,4.77,4.77,0,0,0,3.22-1,0.6,0.6,0,0,1,.41-0.13c0.28,0,.56,0,0.84,0,5,0,9.13-2.94,9.13-6.57S837.14,140.48,832.09,140.48Z"/>
      <path class="c animated bounce" d="M827.86,155.53h-0.26a1.43,1.43,0,0,1-1.32-1,1.37,1.37,0,0,1,.28-1.31c-2.77-1.37-4.41-3.65-4.41-6.14,0-4.08,4.46-7.4,10-7.4s10,3.32,10,7.4-4.46,7.4-10,7.4l-0.81,0A5.53,5.53,0,0,1,827.86,155.53Zm-0.07-1.25h0Zm4.3-13c-4.58,0-8.31,2.58-8.31,5.75,0,1.92,1.4,3.71,3.75,4.79a1.44,1.44,0,0,1,.83,1.16,1.4,1.4,0,0,1-.2.87,3.85,3.85,0,0,0,2.17-.8,1.44,1.44,0,0,1,1-.3l0.79,0c4.58,0,8.31-2.58,8.31-5.75S836.68,141.3,832.09,141.3Z"/>
    </g>
    <g>
      <circle class="l animated bounce" cx="839.79" cy="142.77" r="3.17"/>
      <path class="c animated bounce" d="M839.79,146.71a3.94,3.94,0,1,1,3.94-3.94A3.94,3.94,0,0,1,839.79,146.71Zm0-6.33a2.4,2.4,0,1,0,2.4,2.4A2.4,2.4,0,0,0,839.79,140.38Z"/>
    </g>
  </g>
  <g>
    <g>
      <path class="m" d="M445.58,178.29V200c0,2.63-.87,5.13-5.12,5.13H422.58a4.86,4.86,0,0,1-5.06-5.06V178.29h28.06Z"/>
      <path class="c" d="M440.45,207.16H422.58a6.83,6.83,0,0,1-7.06-7.06V176.29h32.06V200C447.58,206.24,443.11,207.16,440.45,207.16Zm-20.94-26.87V200.1a2.87,2.87,0,0,0,3.06,3.06h17.88c2.64,0,3.13-1.05,3.13-3.12V180.29H419.51Z"/>
    </g>
    <path class="c" d="M446.72,202.12l0-4A7,7,0,0,0,452,196a6.76,6.76,0,0,0,1.69-4.64c0-3.32-2.22-6.64-7-6.64h-0.1l0-4A10.72,10.72,0,1,1,446.72,202.12Z"/>
  </g>
  <g>
    <path class="a" d="M151.66,481.12c-150,0-241.93,80.84-1.16,80.84S338.92,481.12,151.66,481.12Z"/>
    <path class="c" d="M150.49,564.46c-50,0-88.6-3.44-114.6-10.21C19.52,550,0,542,0,528.44c0-26.08,72.29-49.83,151.66-49.83,45.93,0,87.89,5,118.16,14.11,28.92,8.69,44.84,20.19,44.84,32.39,0,8-7,19.28-40.23,27.94C245.82,560.52,203,564.46,150.49,564.46Zm1.16-80.84c-38.74,0-76.08,5.4-105.13,15.2C20.91,507.46,5,518.81,5,528.44c0,8.11,11.42,15.56,32.15,21,25.59,6.67,63.72,10.05,113.34,10.05,52,0,94.47-3.88,122.67-11.23,23.19-6,36.49-14.46,36.49-23.1C309.66,507.72,254.75,483.62,151.66,483.62Z"/>
  </g>
  <g class="watson">
    <rect class="c" x="219.52" y="414.36" width="9.38" height="7.74" rx="3.87" ry="3.87"/>
    <path class="d" d="M204.52,453.51c-3.35,2.54-3.62,7.37-1.05,10.77,2.39,3.15,8.17,4.29,11.1,4.67a1.85,1.85,0,0,0,2.07-1.57c0.43-2.92.91-8.79-1.47-11.95C212.63,452.07,207.87,451,204.52,453.51Zm7.07,8.4a3.37,3.37,0,1,1,.53-3.85A3.37,3.37,0,0,1,211.59,461.9Z"/>
    <path class="a" d="M212.52,415.25v-6.58l-4.59-8.49-4.52-5.42L189,384.85H174.17s-18.63,7.55-22.87,13-6.37,15.8-6.13,21.29,8.73,12,8.73,12l-5.19,7.78-19.1,22.57-7.55,17.3-5.9,28.52c1.26,3.57,3,7.48,3.07,11.08h42l5.54-5.9,3.19,4.37,7.55,2.71L185,516.8l1.71-3.66,9.84,3.3,5.14-4.24,0.39-6.37-3.64-4.56-1-51.1h8.69l13.75-6.84L226,433l3.24-17.71H212.52Z"/>
    <g class="tail-alignment">
        <g class="animation__tail-wag">
          <g class="tail-rotate">
      <path class="a tail-correction" d="M116.16,507.24l-5.66-8-7.78-25.7-4-27.15h-5s-4,10.64-5,10.76S89.51,473,89.51,473L85,478.72,87.69,487v5.66l0.88,8.65L98.7,513.85l14.39,4.48h6.13c0-3.61-1.81-7.52-3.07-11.08h0Z"/>
          </g>
        </g>
    </g>
    <g>
      <path class="c" d="M230.27,414.29a2.34,2.34,0,0,0-2.34-2.14H214.16a33.51,33.51,0,0,0-31.6-31,2.36,2.36,0,0,0-.47,0h-1.29a33.45,33.45,0,0,0-7,.74,41,41,0,0,0-20.51,10c-6.72,6.17-10.79,14.44-10.9,22.14a18.39,18.39,0,0,0,9.09,16.63c0.46,0.29,0,.62-0.15.72-6.3,5.09-16.08,15.4-23.57,29.64-9.47,18-13.72,36.29-14.6,39.38s-1.58,4.76.31,7.47c1.35,1.94,4.62.88,4.84-1.31,3.25-32.85,20.77-57.36,32.62-68.58a69.72,69.72,0,0,0,19.47,10.37,110.44,110.44,0,0,0,24.94,5.34v44.64a8.11,8.11,0,0,0,2.5,5.86l0.8,0.76a3.52,3.52,0,0,1,1.13,2.72,3.37,3.37,0,0,1-2,2.95,13.43,13.43,0,0,1-5.42,1.23,8.83,8.83,0,0,1-3.28-.53,8.09,8.09,0,0,0-2.5-5.59l-0.87-.83a3.43,3.43,0,0,1-1-1.8c0-.61-0.07-1.26-0.07-2V464.42a2.43,2.43,0,0,0-1.66-2.33l-0.2-.05h-0.05l-0.14,0H182l-0.18,0h-0.05l-0.2.05a2.34,2.34,0,0,0-1.66,2.24V502.4a8,8,0,0,0,.1,1.28,8.15,8.15,0,0,0,2.4,4.57l0.8,0.77a3.43,3.43,0,0,1,.63,4.33,3.35,3.35,0,0,1-1.52,1.32,13.43,13.43,0,0,1-5.42,1.23c-3.59,0-7.7-1.22-7.7-10.72v-25a2.43,2.43,0,0,0-1.66-2.33l-0.2-.05h-0.05l-0.14,0h-0.55l-0.18,0h-0.05l-0.2.05a2.34,2.34,0,0,0-1.66,2.24V501c-1-2.65-21.1-2.13-21.75-2.11h-6.06a2.58,2.58,0,0,0-2.24,1.52l0,0-0.05.13,0,0.14,0,0.07q0,0.11,0,.22v0h0c0,0.05,0,.11,0,0.16s0,0.06,0,.09a2.42,2.42,0,0,0,0,.27s0,0.09,0,.13,0,0.08,0,.12l0,0.11a2.18,2.18,0,0,0,.07.22l0.05,0.14a2.22,2.22,0,0,0,.14.26l0.06,0.09a2.34,2.34,0,0,0,1.95,1h1.26c0.3,0,22.59-.49,25.14,2a4.41,4.41,0,0,1,1.17,3.48,5.24,5.24,0,0,1-1.66,4.08c-2.92,2.68-9.07,2.8-11.2,2.63H117.69a24.2,24.2,0,0,1-4.58-.15,29.07,29.07,0,0,1-8.56-2.91l-1.41,4.52c6.18,2.82,14.75,3.14,14.84,3.14H151c0.25,0,.86,0,1.72,0,3.05,0,9.18-.32,12.93-3.77a10.12,10.12,0,0,0,1.17-1.27c0.11,0.18.22,0.36,0.34,0.53,1.47,2.12,4.34,4.65,9.72,4.65a18.08,18.08,0,0,0,7.32-1.63,8.07,8.07,0,0,0,3.61-3.15,13.63,13.63,0,0,0,4.47.7,18.08,18.08,0,0,0,7.32-1.63,8.09,8.09,0,0,0,4.81-7.74,8.41,8.41,0,0,0-2.69-5.71l-0.69-.66a3.42,3.42,0,0,1-1.06-2.47v-47c9.17-.41,16.46-3.49,21.68-9.19C231.64,431.23,230.33,415,230.27,414.29Zm-12,24.64c-4.4,4.79-11.52,7.66-18.73,7.66s-15.23-1.78-23.59-4.73a114,114,0,0,1-19.52-9.62,25.47,25.47,0,0,0,9.9,1.89c7.11,0,12.24-2.21,15.25-6.57,6.47-9.38.11-25.06-.16-25.72a2.35,2.35,0,0,0-3.29-1.16,2.41,2.41,0,0,0-1,3c1.6,3.93,4.76,15.18.6,21.2-2.19,3.18-6.32,4.7-12.27,4.53a25.14,25.14,0,0,1-10.47-2.32,13.38,13.38,0,0,1-7.35-8.72,16,16,0,0,1-.5-4.31,20.59,20.59,0,0,1,.77-5.19,29.59,29.59,0,0,1,8.61-13.57,36.35,36.35,0,0,1,18.35-8.86,41.58,41.58,0,0,1,6.37-.62,28.8,28.8,0,0,1,28.37,28.63,2.38,2.38,0,0,0,2.37,2.38h11.66a2,2,0,0,1,2,2.12C225.31,424.06,223.93,432.72,218.23,438.93Z"/>
      <g class="tail-alignment">
        <g class="animation__tail-wag">
          <g class="tail-rotate">
            <path class="c tail-correction" d="M112.77,515.7c-7-1.2-17.37-5.69-24.83-20.76a1.18,1.18,0,0,1,1.06-1.7,1.14,1.14,0,0,1,.76.3l1.86,1.64a1.14,1.14,0,0,0,.77.3,1.17,1.17,0,0,0,1.06-1.69,112.76,112.76,0,0,1-6.39-15.87,1.16,1.16,0,0,1,1.14-1.51,1.12,1.12,0,0,1,1,.6c0.92,1.63,1.92,3.35,2.92,5a1.12,1.12,0,0,0,1,.56A1.17,1.17,0,0,0,94.21,481c-2.92-8.42-5.77-21.93.28-33.2a1.13,1.13,0,0,1,1-.62,1.16,1.16,0,0,1,1.18,1.1c0.65,10.52,3.6,41.1,16.45,59.56a2.55,2.55,0,0,0,3.06.82A73.25,73.25,0,0,0,114,500.3v0a92.44,92.44,0,0,1-8.14-22.13,177.06,177.06,0,0,1-4.5-30.21,5.88,5.88,0,0,0-5.86-5.5h0a5.84,5.84,0,0,0-5.15,3.08,37.6,37.6,0,0,0-4.06,20.14,54.45,54.45,0,0,0,.7,6.14,5.94,5.94,0,0,0-3.56,2.26,5.78,5.78,0,0,0-.88,5.17,101.91,101.91,0,0,0,3.66,10A5.93,5.93,0,0,0,84,491.35a5.81,5.81,0,0,0-.26,5.67c4.51,9.1,10.53,15.74,17.9,19.72,6.2,3.35,15.9,3.71,16,3.71h0.08c-0.09-1.53-.23-3.07-0.4-4.6A23.82,23.82,0,0,1,112.77,515.7Z"/>
          </g>
        </g>
      </g>
    </g>
    <path class="n" d="M195.34,453.67V446.4a144.66,144.66,0,0,1-20.7-5.14,112.87,112.87,0,0,1-18.26-9s-0.38.35-2.38,2.45-3.07,3.27-3.07,3.27,5.3,5.36,20.06,10.58S195.34,453.67,195.34,453.67Z"/>
    <path class="c" d="M216.76,416.21s0.36,10.21,8.84,8.95l3.3-6.93L225,414.36Z"/>
  </g>
  <g>
    <path class="a" d="M67.25,526.23s29.93-17.41,90.33-17.41S249,526.23,249,526.23"/>
    <path class="c" d="M249,528.73a2.49,2.49,0,0,1-1.22-.32c-0.3-.17-31.27-17.09-90.19-17.09S68.8,528.22,68.51,528.4A2.5,2.5,0,1,1,66,524.07c1.25-.72,31.21-17.75,91.59-17.75s91.35,17,92.64,17.73A2.5,2.5,0,0,1,249,528.73Z"/>
  </g>
  <path class="c workspace__steam workspace__steam--1" d="M426.34,166.34a1.33,1.33,0,0,1-.1.46,1.07,1.07,0,0,1-1.41.5c-0.31-.14-2.93-1.45-3.4-3.9a4.77,4.77,0,0,1,1.58-4.25,3.07,3.07,0,0,0,1.1-2.55,4.36,4.36,0,0,0-2.2-2.47,1.06,1.06,0,0,1,1-1.89c0.12,0.06,2.9,1.47,3.34,4a5.09,5.09,0,0,1-1.66,4.38,2.88,2.88,0,0,0-1,2.37,4.16,4.16,0,0,0,2.22,2.37A1.07,1.07,0,0,1,426.34,166.34Z"/>
  <path class="c workspace__steam workspace__steam--2" d="M440.49,169.21a1.33,1.33,0,0,1-.1.46,1.07,1.07,0,0,1-1.41.5c-0.31-.14-2.93-1.45-3.4-3.9a4.77,4.77,0,0,1,1.58-4.25,3.07,3.07,0,0,0,1.1-2.55,4.36,4.36,0,0,0-2.2-2.47,1.06,1.06,0,0,1,1-1.89c0.12,0.06,2.9,1.47,3.34,4a5.09,5.09,0,0,1-1.66,4.38,2.88,2.88,0,0,0-1,2.37,4.16,4.16,0,0,0,2.22,2.37A1.07,1.07,0,0,1,440.49,169.21Z"/>
  <path class="c workspace__steam workspace__steam--3" d="M433.16,161a1.33,1.33,0,0,1-.1.46,1.07,1.07,0,0,1-1.41.5c-0.31-.14-2.93-1.45-3.4-3.9a4.77,4.77,0,0,1,1.58-4.25,3.07,3.07,0,0,0,1.1-2.55,4.36,4.36,0,0,0-2.2-2.47,1.06,1.06,0,1,1,1-1.89c0.12,0.06,2.9,1.47,3.34,4a5.09,5.09,0,0,1-1.66,4.38,2.88,2.88,0,0,0-1,2.37,4.16,4.16,0,0,0,2.22,2.37A1.07,1.07,0,0,1,433.16,161Z"/>
</svg>
